<svg class="main-svg" xmlns="http://www.w3.org/2000/svg" xmlns:xlink="http://www.w3.org/1999/xlink" width="1024" height="512" style="" viewBox="0 0 1024 512"><rect x="0" y="0" width="1024" height="512" style="fill: rgb(255, 255, 255); fill-opacity: 1;"/><defs id="defs-1c75fe"><g class="clips"><clipPath id="clip1c75fexyplot" class="plotclip"><rect width="864" height="332"/></clipPath><clipPath class="axesclip" id="clip1c75fex"><rect x="80" y="0" width="864" height="512"/></clipPath><clipPath class="axesclip" id="clip1c75fey"><rect x="0" y="100" width="1024" height="332"/></clipPath><clipPath class="axesclip" id="clip1c75fexy"><rect x="80" y="100" width="864" height="332"/></clipPath></g><g class="gradients"/></defs><g class="bglayer"/><g class="layer-below"><g class="imagelayer"/><g class="shapelayer"/></g><g class="cartesianlayer"><g class="subplot xy"><g class="layer-subplot"><g class="shapelayer"/><g class="imagelayer"/></g><g class="gridlayer"><g class="x"/><g class="y"/></g><g class="zerolinelayer"><path class="yzl zl crisp" transform="translate(0,432)" d="M80,0h864" style="stroke: rgb(68, 68, 68); stroke-opacity: 1; stroke-width: 1px;"/></g><path class="xlines-below"/><path class="ylines-below"/><g class="overlines-below"/><g class="xaxislayer-below"/><g class="yaxislayer-below"/><g class="overaxes-below"/><g class="plot" transform="translate(80,100)" clip-path="url('#clip1c75fexyplot')"><g class="scatterlayer mlayer"><g class="trace scatter trace02f556" style="stroke-miterlimit: 2;"><g class="fills"><g><path class="js-fill" d="M814.55,332L49.45,332L49.45,0Q176.96,0 240.72,0C304.48,0 368.24,0 432,0C495.76,0 559.52,0 623.28,0Q687.04,0 814.55,0" style="fill: rgb(123, 200, 246); fill-opacity: 1; stroke-width: 0;"/></g></g><g class="errorbars"/><g class="lines"/><g class="points"/><g class="text"/></g><g class="trace scatter trace5e618c" style="stroke-miterlimit: 2;"><g class="fills"><g><path class="js-fill" d="M814.55,332L49.45,332L49.45,138.81Q176.93,150.91 240.72,152.38C304.44,153.84 368.24,148.34 432,147.62C495.76,146.9 559.52,148.46 623.28,148.03Q687.04,147.6 814.55,145.01" style="fill: rgb(12, 181, 119); fill-opacity: 1; stroke-width: 0;"/></g></g><g class="errorbars"/><g class="lines"><path class="js-line" d="M49.45,138.81Q176.93,150.91 240.72,152.38C304.44,153.84 368.24,148.34 432,147.62C495.76,146.9 559.52,148.46 623.28,148.03Q687.04,147.6 814.55,145.01" style="vector-effect: non-scaling-stroke; fill: none; stroke: rgb(255, 255, 255); stroke-opacity: 1; stroke-width: 3px; opacity: 1;"/></g><g class="points"/><g class="text"/></g><g class="trace scatter trace1dcb92" style="stroke-miterlimit: 2; opacity: 1;"><g class="fills"/><g class="errorbars"/><g class="lines"><path class="js-line" d="M49.45,138.81L49.45,142.29" style="vector-effect: non-scaling-stroke; fill: none; stroke: rgb(54, 55, 55); stroke-opacity: 1; stroke-width: 0.75px; opacity: 1; stroke-dasharray: 3px, 3px;"/></g><g class="points"/><g class="text"/></g><g class="trace scatter tracea9d07d" style="stroke-miterlimit: 2; opacity: 1;"><g class="fills"/><g class="errorbars"/><g class="lines"><path class="js-line" d="M240.72,152.38L240.72,142.29" style="vector-effect: non-scaling-stroke; fill: none; stroke: rgb(54, 55, 55); stroke-opacity: 1; stroke-width: 0.75px; opacity: 1; stroke-dasharray: 3px, 3px;"/></g><g class="points"/><g class="text"/></g><g class="trace scatter trace8f69e5" style="stroke-miterlimit: 2; opacity: 1;"><g class="fills"/><g class="errorbars"/><g class="lines"><path class="js-line" d="M432,147.62L432,142.29" style="vector-effect: non-scaling-stroke; fill: none; stroke: rgb(54, 55, 55); stroke-opacity: 1; stroke-width: 0.75px; opacity: 1; stroke-dasharray: 3px, 3px;"/></g><g class="points"/><g class="text"/></g><g class="trace scatter trace69afc1" style="stroke-miterlimit: 2; opacity: 1;"><g class="fills"/><g class="errorbars"/><g class="lines"><path class="js-line" d="M623.28,148.03L623.28,142.29" style="vector-effect: non-scaling-stroke; fill: none; stroke: rgb(54, 55, 55); stroke-opacity: 1; stroke-width: 0.75px; opacity: 1; stroke-dasharray: 3px, 3px;"/></g><g class="points"/><g class="text"/></g><g class="trace scatter trace5f11c2" style="stroke-miterlimit: 2; opacity: 1;"><g class="fills"/><g class="errorbars"/><g class="lines"><path class="js-line" d="M814.55,145.01L814.55,142.29" style="vector-effect: non-scaling-stroke; fill: none; stroke: rgb(54, 55, 55); stroke-opacity: 1; stroke-width: 0.75px; opacity: 1; stroke-dasharray: 3px, 3px;"/></g><g class="points"/><g class="text"/></g><g class="trace scatter trace38d563" style="stroke-miterlimit: 2; opacity: 1;"><g class="fills"/><g class="errorbars"/><g class="lines"/><g class="points"><path class="point" transform="translate(49.45,138.81)" d="M5,0A5,5 0 1,1 0,-5A5,5 0 0,1 5,0Z" style="opacity: 1; stroke-width: 0px; fill: rgb(255, 255, 255); fill-opacity: 1;"/><path class="point" transform="translate(240.72,152.38)" d="M5,0A5,5 0 1,1 0,-5A5,5 0 0,1 5,0Z" style="opacity: 1; stroke-width: 0px; fill: rgb(255, 255, 255); fill-opacity: 1;"/><path class="point" transform="translate(432,147.62)" d="M5,0A5,5 0 1,1 0,-5A5,5 0 0,1 5,0Z" style="opacity: 1; stroke-width: 0px; fill: rgb(255, 255, 255); fill-opacity: 1;"/><path class="point" transform="translate(623.28,148.03)" d="M5,0A5,5 0 1,1 0,-5A5,5 0 0,1 5,0Z" style="opacity: 1; stroke-width: 0px; fill: rgb(255, 255, 255); fill-opacity: 1;"/><path class="point" transform="translate(814.55,145.01)" d="M5,0A5,5 0 1,1 0,-5A5,5 0 0,1 5,0Z" style="opacity: 1; stroke-width: 0px; fill: rgb(255, 255, 255); fill-opacity: 1;"/></g><g class="text"/></g><g class="trace scatter trace5099fd" style="stroke-miterlimit: 2; opacity: 1;"><g class="fills"/><g class="errorbars"/><g class="lines"><path class="js-line" d="M49.45,142.29Q176.96,142.29 240.72,142.29C304.48,142.29 368.24,142.29 432,142.29C495.76,142.29 559.52,142.29 623.28,142.29Q687.04,142.29 814.55,142.29" style="vector-effect: non-scaling-stroke; fill: none; stroke: rgb(7, 13, 13); stroke-opacity: 1; stroke-width: 0.95px; opacity: 1; stroke-dasharray: 3px, 3px;"/></g><g class="points"/><g class="text"><g class="textpoint" transform="translate(0,-3)"><text x="49.45" y="142.29" text-anchor="start" style="font-family: 'Open Sans', verdana, arial, sans-serif; font-size: 12px; fill: rgb(68, 68, 68); fill-opacity: 1; white-space: pre;">Good</text></g><g class="textpoint"/><g class="textpoint"/><g class="textpoint"/><g class="textpoint"/></g></g></g></g><g class="overplot"/><path class="xlines-above crisp" d="M0,0" style="fill: none;"/><path class="ylines-above crisp" d="M79.5,100V432" style="fill: none; stroke-width: 1px; stroke: rgb(0, 0, 0); stroke-opacity: 1;"/><g class="overlines-above"/><g class="xaxislayer-above"><g class="xtick"><text text-anchor="middle" x="0" y="445" transform="translate(129.45,0)" style="font-family: 'Open Sans', verdana, arial, sans-serif; font-size: 12px; fill: rgb(68, 68, 68); fill-opacity: 1; white-space: pre;">1.0.3</text></g><g class="xtick"><text text-anchor="middle" x="0" y="445" transform="translate(320.72,0)" style="font-family: 'Open Sans', verdana, arial, sans-serif; font-size: 12px; fill: rgb(68, 68, 68); fill-opacity: 1; white-space: pre;">1.0.4</text></g><g class="xtick"><text text-anchor="middle" x="0" y="445" transform="translate(512,0)" style="font-family: 'Open Sans', verdana, arial, sans-serif; font-size: 12px; fill: rgb(68, 68, 68); fill-opacity: 1; white-space: pre;">1.0.5</text></g><g class="xtick"><text text-anchor="middle" x="0" y="445" transform="translate(703.28,0)" style="font-family: 'Open Sans', verdana, arial, sans-serif; font-size: 12px; fill: rgb(68, 68, 68); fill-opacity: 1; white-space: pre;">1.1.0-beta01</text></g><g class="xtick"><text text-anchor="middle" x="0" y="445" transform="translate(894.55,0)" style="font-family: 'Open Sans', verdana, arial, sans-serif; font-size: 12px; fill: rgb(68, 68, 68); fill-opacity: 1; white-space: pre;">1.1.0-beta02</text></g></g><g class="yaxislayer-above"><g class="ytick"><text text-anchor="end" x="76.6" y="4.199999999999999" transform="translate(0,432)" style="font-family: 'Open Sans', verdana, arial, sans-serif; font-size: 12px; fill: rgb(68, 68, 68); fill-opacity: 1; white-space: pre;">Low</text></g><g class="ytick"><text text-anchor="end" x="76.6" y="4.199999999999999" transform="translate(0,242.29)" style="font-family: 'Open Sans', verdana, arial, sans-serif; font-size: 12px; fill: rgb(68, 68, 68); fill-opacity: 1; white-space: pre;"></text></g><g class="ytick"><text text-anchor="end" x="76.6" y="4.199999999999999" transform="translate(0,100)" style="font-family: 'Open Sans', verdana, arial, sans-serif; font-size: 12px; fill: rgb(68, 68, 68); fill-opacity: 1; white-space: pre;">High</text></g></g><g class="overaxes-above"/></g></g><g class="polarlayer"/><g class="ternarylayer"/><g class="geolayer"/><g class="funnelarealayer"/><g class="pielayer"/><g class="treemaplayer"/><g class="sunburstlayer"/><g class="glimages"/><defs id="topdefs-1c75fe"><g class="clips"/></defs><g class="layer-above"><g class="imagelayer"/><g class="shapelayer"/></g><g class="infolayer"><g class="g-gtitle"><text class="gtitle" x="512" y="50" text-anchor="middle" dy="0em" style="font-family: 'Open Sans', verdana, arial, sans-serif; font-size: 17px; fill: rgb(68, 68, 68); opacity: 1; font-weight: normal; white-space: pre;">Jetpack Compose dynamics</text></g><g class="g-xtitle"><text class="xtitle" x="512" y="484" text-anchor="middle" style="font-family: 'Open Sans', verdana, arial, sans-serif; font-size: 14px; fill: rgb(68, 68, 68); opacity: 1; font-weight: normal; white-space: pre;">Compose version</text></g><g class="g-ytitle"><text class="ytitle" transform="rotate(-90,42,266)" x="42" y="266" text-anchor="middle" style="font-family: 'Open Sans', verdana, arial, sans-serif; font-size: 14px; fill: rgb(68, 68, 68); opacity: 1; font-weight: normal; white-space: pre;">Performance index</text></g></g></svg>