<svg class="main-svg" xmlns="http://www.w3.org/2000/svg" xmlns:xlink="http://www.w3.org/1999/xlink" width="1024" height="600" style="" viewBox="0 0 1024 600"><rect x="0" y="0" width="1024" height="600" style="fill: rgb(255, 255, 255); fill-opacity: 1;"/><defs id="defs-afea75"><g class="clips"><clipPath id="clipafea75xyplot" class="plotclip"><rect width="864" height="420"/></clipPath><clipPath class="axesclip" id="clipafea75x"><rect x="80" y="0" width="864" height="600"/></clipPath><clipPath class="axesclip" id="clipafea75y"><rect x="0" y="100" width="1024" height="420"/></clipPath><clipPath class="axesclip" id="clipafea75xy"><rect x="80" y="100" width="864" height="420"/></clipPath></g><g class="gradients"/></defs><g class="bglayer"/><g class="layer-below"><g class="imagelayer"/><g class="shapelayer"/></g><g class="cartesianlayer"><g class="subplot xy"><g class="layer-subplot"><g class="shapelayer"/><g class="imagelayer"/></g><g class="gridlayer"><g class="x"/><g class="y"><path class="ygrid crisp" transform="translate(0,450)" d="M80,0h864" style="stroke: rgb(238, 238, 238); stroke-opacity: 1; stroke-width: 1px;"/><path class="ygrid crisp" transform="translate(0,380)" d="M80,0h864" style="stroke: rgb(238, 238, 238); stroke-opacity: 1; stroke-width: 1px;"/><path class="ygrid crisp" transform="translate(0,310)" d="M80,0h864" style="stroke: rgb(238, 238, 238); stroke-opacity: 1; stroke-width: 1px;"/><path class="ygrid crisp" transform="translate(0,240)" d="M80,0h864" style="stroke: rgb(238, 238, 238); stroke-opacity: 1; stroke-width: 1px;"/><path class="ygrid crisp" transform="translate(0,170)" d="M80,0h864" style="stroke: rgb(238, 238, 238); stroke-opacity: 1; stroke-width: 1px;"/></g></g><g class="zerolinelayer"><path class="yzl zl crisp" transform="translate(0,520)" d="M80,0h864" style="stroke: rgb(68, 68, 68); stroke-opacity: 1; stroke-width: 1px;"/></g><path class="xlines-below"/><path class="ylines-below"/><g class="overlines-below"/><g class="xaxislayer-below"/><g class="yaxislayer-below"/><g class="overaxes-below"/><g class="plot" transform="translate(80,100)" clip-path="url('#clipafea75xyplot')"><g class="barlayer mlayer"><g class="trace bars" style="opacity: 1;"><g class="points"><g class="point"><path d="M41.32,420V382.62H45.08V420Z" style="vector-effect: non-scaling-stroke; opacity: 1; stroke-width: 0px; fill: rgb(123, 200, 246); fill-opacity: 1;"/></g><g class="point"><path d="M44.74,420V355.34H48.51V420Z" style="vector-effect: non-scaling-stroke; opacity: 1; stroke-width: 0px; fill: rgb(123, 200, 246); fill-opacity: 1;"/></g><g class="point"><path d="M48.17,420V367.48H51.94V420Z" style="vector-effect: non-scaling-stroke; opacity: 1; stroke-width: 0px; fill: rgb(123, 200, 246); fill-opacity: 1;"/></g><g class="point"><path d="M51.59,420V373.65H55.36V420Z" style="vector-effect: non-scaling-stroke; opacity: 1; stroke-width: 0px; fill: rgb(123, 200, 246); fill-opacity: 1;"/></g><g class="point"><path d="M55.02,420V379.16H58.79V420Z" style="vector-effect: non-scaling-stroke; opacity: 1; stroke-width: 0px; fill: rgb(123, 200, 246); fill-opacity: 1;"/></g><g class="point"><path d="M58.44,420V372.58H62.21V420Z" style="vector-effect: non-scaling-stroke; opacity: 1; stroke-width: 0px; fill: rgb(123, 200, 246); fill-opacity: 1;"/></g><g class="point"><path d="M61.87,420V370.59H65.64V420Z" style="vector-effect: non-scaling-stroke; opacity: 1; stroke-width: 0px; fill: rgb(123, 200, 246); fill-opacity: 1;"/></g><g class="point"><path d="M65.29,420V367.64H69.06V420Z" style="vector-effect: non-scaling-stroke; opacity: 1; stroke-width: 0px; fill: rgb(123, 200, 246); fill-opacity: 1;"/></g><g class="point"><path d="M68.72,420V375.54H72.49V420Z" style="vector-effect: non-scaling-stroke; opacity: 1; stroke-width: 0px; fill: rgb(123, 200, 246); fill-opacity: 1;"/></g><g class="point"><path d="M72.15,420V370.44H75.91V420Z" style="vector-effect: non-scaling-stroke; opacity: 1; stroke-width: 0px; fill: rgb(123, 200, 246); fill-opacity: 1;"/></g><g class="point"><path d="M75.57,420V369.41H79.34V420Z" style="vector-effect: non-scaling-stroke; opacity: 1; stroke-width: 0px; fill: rgb(123, 200, 246); fill-opacity: 1;"/></g><g class="point"><path d="M79,420V383.24H82.77V420Z" style="vector-effect: non-scaling-stroke; opacity: 1; stroke-width: 0px; fill: rgb(123, 200, 246); fill-opacity: 1;"/></g><g class="point"><path d="M82.42,420V378.4H86.19V420Z" style="vector-effect: non-scaling-stroke; opacity: 1; stroke-width: 0px; fill: rgb(123, 200, 246); fill-opacity: 1;"/></g><g class="point"><path d="M85.85,420V370.39H89.62V420Z" style="vector-effect: non-scaling-stroke; opacity: 1; stroke-width: 0px; fill: rgb(123, 200, 246); fill-opacity: 1;"/></g><g class="point"><path d="M89.27,420V363.15H93.04V420Z" style="vector-effect: non-scaling-stroke; opacity: 1; stroke-width: 0px; fill: rgb(123, 200, 246); fill-opacity: 1;"/></g><g class="point"><path d="M92.7,420V381.33H96.47V420Z" style="vector-effect: non-scaling-stroke; opacity: 1; stroke-width: 0px; fill: rgb(123, 200, 246); fill-opacity: 1;"/></g><g class="point"><path d="M96.12,420V376.98H99.89V420Z" style="vector-effect: non-scaling-stroke; opacity: 1; stroke-width: 0px; fill: rgb(123, 200, 246); fill-opacity: 1;"/></g><g class="point"><path d="M99.55,420V387.77H103.32V420Z" style="vector-effect: non-scaling-stroke; opacity: 1; stroke-width: 0px; fill: rgb(123, 200, 246); fill-opacity: 1;"/></g><g class="point"><path d="M102.98,420V371.69H106.74V420Z" style="vector-effect: non-scaling-stroke; opacity: 1; stroke-width: 0px; fill: rgb(123, 200, 246); fill-opacity: 1;"/></g><g class="point"><path d="M106.4,420V367.23H110.17V420Z" style="vector-effect: non-scaling-stroke; opacity: 1; stroke-width: 0px; fill: rgb(123, 200, 246); fill-opacity: 1;"/></g><g class="point"><path d="M109.83,420V358.13H113.6V420Z" style="vector-effect: non-scaling-stroke; opacity: 1; stroke-width: 0px; fill: rgb(123, 200, 246); fill-opacity: 1;"/></g><g class="point"><path d="M113.25,420V352.74H117.02V420Z" style="vector-effect: non-scaling-stroke; opacity: 1; stroke-width: 0px; fill: rgb(123, 200, 246); fill-opacity: 1;"/></g><g class="point"><path d="M116.68,420V362.88H120.45V420Z" style="vector-effect: non-scaling-stroke; opacity: 1; stroke-width: 0px; fill: rgb(123, 200, 246); fill-opacity: 1;"/></g><g class="point"><path d="M120.1,420V351.38H123.87V420Z" style="vector-effect: non-scaling-stroke; opacity: 1; stroke-width: 0px; fill: rgb(123, 200, 246); fill-opacity: 1;"/></g><g class="point"><path d="M123.53,420V345.81H127.3V420Z" style="vector-effect: non-scaling-stroke; opacity: 1; stroke-width: 0px; fill: rgb(123, 200, 246); fill-opacity: 1;"/></g><g class="point"><path d="M126.95,420V381.74H130.72V420Z" style="vector-effect: non-scaling-stroke; opacity: 1; stroke-width: 0px; fill: rgb(123, 200, 246); fill-opacity: 1;"/></g><g class="point"><path d="M130.38,420V375.7H134.15V420Z" style="vector-effect: non-scaling-stroke; opacity: 1; stroke-width: 0px; fill: rgb(123, 200, 246); fill-opacity: 1;"/></g><g class="point"><path d="M133.81,420V371.07H137.57V420Z" style="vector-effect: non-scaling-stroke; opacity: 1; stroke-width: 0px; fill: rgb(123, 200, 246); fill-opacity: 1;"/></g><g class="point"><path d="M137.23,420V381.03H141V420Z" style="vector-effect: non-scaling-stroke; opacity: 1; stroke-width: 0px; fill: rgb(123, 200, 246); fill-opacity: 1;"/></g><g class="point"><path d="M140.66,420V355.21H144.43V420Z" style="vector-effect: non-scaling-stroke; opacity: 1; stroke-width: 0px; fill: rgb(123, 200, 246); fill-opacity: 1;"/></g><g class="point"><path d="M144.08,420V365.8H147.85V420Z" style="vector-effect: non-scaling-stroke; opacity: 1; stroke-width: 0px; fill: rgb(123, 200, 246); fill-opacity: 1;"/></g><g class="point"><path d="M147.51,420V319.51H151.28V420Z" style="vector-effect: non-scaling-stroke; opacity: 1; stroke-width: 0px; fill: rgb(123, 200, 246); fill-opacity: 1;"/></g><g class="point"><path d="M150.93,420V334.01H154.7V420Z" style="vector-effect: non-scaling-stroke; opacity: 1; stroke-width: 0px; fill: rgb(123, 200, 246); fill-opacity: 1;"/></g><g class="point"><path d="M154.36,420V346.36H158.13V420Z" style="vector-effect: non-scaling-stroke; opacity: 1; stroke-width: 0px; fill: rgb(123, 200, 246); fill-opacity: 1;"/></g><g class="point"><path d="M157.78,420V358.48H161.55V420Z" style="vector-effect: non-scaling-stroke; opacity: 1; stroke-width: 0px; fill: rgb(123, 200, 246); fill-opacity: 1;"/></g><g class="point"><path d="M161.21,420V343.37H164.98V420Z" style="vector-effect: non-scaling-stroke; opacity: 1; stroke-width: 0px; fill: rgb(123, 200, 246); fill-opacity: 1;"/></g><g class="point"><path d="M164.64,420V364.47H168.4V420Z" style="vector-effect: non-scaling-stroke; opacity: 1; stroke-width: 0px; fill: rgb(123, 200, 246); fill-opacity: 1;"/></g><g class="point"><path d="M168.06,420V379.08H171.83V420Z" style="vector-effect: non-scaling-stroke; opacity: 1; stroke-width: 0px; fill: rgb(123, 200, 246); fill-opacity: 1;"/></g><g class="point"><path d="M171.49,420V370.95H175.25V420Z" style="vector-effect: non-scaling-stroke; opacity: 1; stroke-width: 0px; fill: rgb(123, 200, 246); fill-opacity: 1;"/></g><g class="point"><path d="M174.91,420V376.65H178.68V420Z" style="vector-effect: non-scaling-stroke; opacity: 1; stroke-width: 0px; fill: rgb(123, 200, 246); fill-opacity: 1;"/></g><g class="point"><path d="M178.34,420V346.54H182.11V420Z" style="vector-effect: non-scaling-stroke; opacity: 1; stroke-width: 0px; fill: rgb(123, 200, 246); fill-opacity: 1;"/></g><g class="point"><path d="M181.76,420V369.87H185.53V420Z" style="vector-effect: non-scaling-stroke; opacity: 1; stroke-width: 0px; fill: rgb(123, 200, 246); fill-opacity: 1;"/></g><g class="point"><path d="M185.19,420V371.49H188.96V420Z" style="vector-effect: non-scaling-stroke; opacity: 1; stroke-width: 0px; fill: rgb(123, 200, 246); fill-opacity: 1;"/></g><g class="point"><path d="M188.61,420V377.53H192.38V420Z" style="vector-effect: non-scaling-stroke; opacity: 1; stroke-width: 0px; fill: rgb(123, 200, 246); fill-opacity: 1;"/></g><g class="point"><path d="M192.04,420V368.04H195.81V420Z" style="vector-effect: non-scaling-stroke; opacity: 1; stroke-width: 0px; fill: rgb(123, 200, 246); fill-opacity: 1;"/></g><g class="point"><path d="M195.47,420V366.57H199.23V420Z" style="vector-effect: non-scaling-stroke; opacity: 1; stroke-width: 0px; fill: rgb(123, 200, 246); fill-opacity: 1;"/></g><g class="point"><path d="M198.89,420V371.47H202.66V420Z" style="vector-effect: non-scaling-stroke; opacity: 1; stroke-width: 0px; fill: rgb(123, 200, 246); fill-opacity: 1;"/></g><g class="point"><path d="M202.32,420V385.54H206.08V420Z" style="vector-effect: non-scaling-stroke; opacity: 1; stroke-width: 0px; fill: rgb(123, 200, 246); fill-opacity: 1;"/></g><g class="point"><path d="M205.74,420V360.83H209.51V420Z" style="vector-effect: non-scaling-stroke; opacity: 1; stroke-width: 0px; fill: rgb(123, 200, 246); fill-opacity: 1;"/></g><g class="point"><path d="M209.17,420V378.33H212.94V420Z" style="vector-effect: non-scaling-stroke; opacity: 1; stroke-width: 0px; fill: rgb(123, 200, 246); fill-opacity: 1;"/></g><g class="point"><path d="M212.59,420V370.97H216.36V420Z" style="vector-effect: non-scaling-stroke; opacity: 1; stroke-width: 0px; fill: rgb(123, 200, 246); fill-opacity: 1;"/></g><g class="point"><path d="M216.02,420V385.31H219.79V420Z" style="vector-effect: non-scaling-stroke; opacity: 1; stroke-width: 0px; fill: rgb(123, 200, 246); fill-opacity: 1;"/></g><g class="point"><path d="M219.44,420V382.36H223.21V420Z" style="vector-effect: non-scaling-stroke; opacity: 1; stroke-width: 0px; fill: rgb(123, 200, 246); fill-opacity: 1;"/></g><g class="point"><path d="M222.87,420V375.54H226.64V420Z" style="vector-effect: non-scaling-stroke; opacity: 1; stroke-width: 0px; fill: rgb(123, 200, 246); fill-opacity: 1;"/></g><g class="point"><path d="M226.3,420V378.28H230.06V420Z" style="vector-effect: non-scaling-stroke; opacity: 1; stroke-width: 0px; fill: rgb(123, 200, 246); fill-opacity: 1;"/></g><g class="point"><path d="M229.72,420V338.65H233.49V420Z" style="vector-effect: non-scaling-stroke; opacity: 1; stroke-width: 0px; fill: rgb(123, 200, 246); fill-opacity: 1;"/></g><g class="point"><path d="M233.15,420V383.41H236.91V420Z" style="vector-effect: non-scaling-stroke; opacity: 1; stroke-width: 0px; fill: rgb(123, 200, 246); fill-opacity: 1;"/></g><g class="point"><path d="M236.57,420V362.93H240.34V420Z" style="vector-effect: non-scaling-stroke; opacity: 1; stroke-width: 0px; fill: rgb(123, 200, 246); fill-opacity: 1;"/></g><g class="point"><path d="M240,420V380.42H243.77V420Z" style="vector-effect: non-scaling-stroke; opacity: 1; stroke-width: 0px; fill: rgb(123, 200, 246); fill-opacity: 1;"/></g><g class="point"><path d="M243.42,420V386.59H247.19V420Z" style="vector-effect: non-scaling-stroke; opacity: 1; stroke-width: 0px; fill: rgb(123, 200, 246); fill-opacity: 1;"/></g><g class="point"><path d="M246.85,420V356.53H250.62V420Z" style="vector-effect: non-scaling-stroke; opacity: 1; stroke-width: 0px; fill: rgb(123, 200, 246); fill-opacity: 1;"/></g><g class="point"><path d="M250.27,420V372.56H254.04V420Z" style="vector-effect: non-scaling-stroke; opacity: 1; stroke-width: 0px; fill: rgb(123, 200, 246); fill-opacity: 1;"/></g><g class="point"><path d="M253.7,420V384.23H257.47V420Z" style="vector-effect: non-scaling-stroke; opacity: 1; stroke-width: 0px; fill: rgb(123, 200, 246); fill-opacity: 1;"/></g><g class="point"><path d="M257.13,420V373.02H260.89V420Z" style="vector-effect: non-scaling-stroke; opacity: 1; stroke-width: 0px; fill: rgb(123, 200, 246); fill-opacity: 1;"/></g><g class="point"><path d="M260.55,420V374.12H264.32V420Z" style="vector-effect: non-scaling-stroke; opacity: 1; stroke-width: 0px; fill: rgb(123, 200, 246); fill-opacity: 1;"/></g><g class="point"><path d="M263.98,420V359.43H267.74V420Z" style="vector-effect: non-scaling-stroke; opacity: 1; stroke-width: 0px; fill: rgb(123, 200, 246); fill-opacity: 1;"/></g><g class="point"><path d="M267.4,420V372.16H271.17V420Z" style="vector-effect: non-scaling-stroke; opacity: 1; stroke-width: 0px; fill: rgb(123, 200, 246); fill-opacity: 1;"/></g><g class="point"><path d="M270.83,420V369.7H274.6V420Z" style="vector-effect: non-scaling-stroke; opacity: 1; stroke-width: 0px; fill: rgb(123, 200, 246); fill-opacity: 1;"/></g><g class="point"><path d="M274.25,420V373.89H278.02V420Z" style="vector-effect: non-scaling-stroke; opacity: 1; stroke-width: 0px; fill: rgb(123, 200, 246); fill-opacity: 1;"/></g><g class="point"><path d="M277.68,420V375.12H281.45V420Z" style="vector-effect: non-scaling-stroke; opacity: 1; stroke-width: 0px; fill: rgb(123, 200, 246); fill-opacity: 1;"/></g><g class="point"><path d="M281.1,420V379.44H284.87V420Z" style="vector-effect: non-scaling-stroke; opacity: 1; stroke-width: 0px; fill: rgb(123, 200, 246); fill-opacity: 1;"/></g><g class="point"><path d="M284.53,420V369.04H288.3V420Z" style="vector-effect: non-scaling-stroke; opacity: 1; stroke-width: 0px; fill: rgb(123, 200, 246); fill-opacity: 1;"/></g><g class="point"><path d="M287.96,420V385.26H291.72V420Z" style="vector-effect: non-scaling-stroke; opacity: 1; stroke-width: 0px; fill: rgb(123, 200, 246); fill-opacity: 1;"/></g><g class="point"><path d="M291.38,420V380.74H295.15V420Z" style="vector-effect: non-scaling-stroke; opacity: 1; stroke-width: 0px; fill: rgb(123, 200, 246); fill-opacity: 1;"/></g><g class="point"><path d="M294.81,420V385.81H298.57V420Z" style="vector-effect: non-scaling-stroke; opacity: 1; stroke-width: 0px; fill: rgb(123, 200, 246); fill-opacity: 1;"/></g><g class="point"><path d="M298.23,420V373.71H302V420Z" style="vector-effect: non-scaling-stroke; opacity: 1; stroke-width: 0px; fill: rgb(123, 200, 246); fill-opacity: 1;"/></g><g class="point"><path d="M301.66,420V376.02H305.43V420Z" style="vector-effect: non-scaling-stroke; opacity: 1; stroke-width: 0px; fill: rgb(123, 200, 246); fill-opacity: 1;"/></g><g class="point"><path d="M305.08,420V375.25H308.85V420Z" style="vector-effect: non-scaling-stroke; opacity: 1; stroke-width: 0px; fill: rgb(123, 200, 246); fill-opacity: 1;"/></g><g class="point"><path d="M308.51,420V379H312.28V420Z" style="vector-effect: non-scaling-stroke; opacity: 1; stroke-width: 0px; fill: rgb(123, 200, 246); fill-opacity: 1;"/></g><g class="point"><path d="M311.93,420V372.07H315.7V420Z" style="vector-effect: non-scaling-stroke; opacity: 1; stroke-width: 0px; fill: rgb(123, 200, 246); fill-opacity: 1;"/></g><g class="point"><path d="M315.36,420V360.35H319.13V420Z" style="vector-effect: non-scaling-stroke; opacity: 1; stroke-width: 0px; fill: rgb(123, 200, 246); fill-opacity: 1;"/></g><g class="point"><path d="M318.79,420V362.66H322.55V420Z" style="vector-effect: non-scaling-stroke; opacity: 1; stroke-width: 0px; fill: rgb(123, 200, 246); fill-opacity: 1;"/></g><g class="point"><path d="M322.21,420V388.55H325.98V420Z" style="vector-effect: non-scaling-stroke; opacity: 1; stroke-width: 0px; fill: rgb(123, 200, 246); fill-opacity: 1;"/></g><g class="point"><path d="M325.64,420V391.64H329.4V420Z" style="vector-effect: non-scaling-stroke; opacity: 1; stroke-width: 0px; fill: rgb(123, 200, 246); fill-opacity: 1;"/></g><g class="point"><path d="M329.06,420V360.21H332.83V420Z" style="vector-effect: non-scaling-stroke; opacity: 1; stroke-width: 0px; fill: rgb(123, 200, 246); fill-opacity: 1;"/></g><g class="point"><path d="M332.49,420V361.6H336.26V420Z" style="vector-effect: non-scaling-stroke; opacity: 1; stroke-width: 0px; fill: rgb(123, 200, 246); fill-opacity: 1;"/></g><g class="point"><path d="M335.91,420V377.12H339.68V420Z" style="vector-effect: non-scaling-stroke; opacity: 1; stroke-width: 0px; fill: rgb(123, 200, 246); fill-opacity: 1;"/></g><g class="point"><path d="M339.34,420V356.7H343.11V420Z" style="vector-effect: non-scaling-stroke; opacity: 1; stroke-width: 0px; fill: rgb(123, 200, 246); fill-opacity: 1;"/></g><g class="point"><path d="M342.76,420V373.13H346.53V420Z" style="vector-effect: non-scaling-stroke; opacity: 1; stroke-width: 0px; fill: rgb(123, 200, 246); fill-opacity: 1;"/></g><g class="point"><path d="M346.19,420V371.48H349.96V420Z" style="vector-effect: non-scaling-stroke; opacity: 1; stroke-width: 0px; fill: rgb(123, 200, 246); fill-opacity: 1;"/></g><g class="point"><path d="M349.62,420V365.64H353.38V420Z" style="vector-effect: non-scaling-stroke; opacity: 1; stroke-width: 0px; fill: rgb(123, 200, 246); fill-opacity: 1;"/></g><g class="point"><path d="M353.04,420V333.73H356.81V420Z" style="vector-effect: non-scaling-stroke; opacity: 1; stroke-width: 0px; fill: rgb(123, 200, 246); fill-opacity: 1;"/></g><g class="point"><path d="M356.47,420V363.35H360.23V420Z" style="vector-effect: non-scaling-stroke; opacity: 1; stroke-width: 0px; fill: rgb(123, 200, 246); fill-opacity: 1;"/></g><g class="point"><path d="M359.89,420V378.02H363.66V420Z" style="vector-effect: non-scaling-stroke; opacity: 1; stroke-width: 0px; fill: rgb(123, 200, 246); fill-opacity: 1;"/></g><g class="point"><path d="M363.32,420V356.27H367.09V420Z" style="vector-effect: non-scaling-stroke; opacity: 1; stroke-width: 0px; fill: rgb(123, 200, 246); fill-opacity: 1;"/></g><g class="point"><path d="M366.74,420V376.28H370.51V420Z" style="vector-effect: non-scaling-stroke; opacity: 1; stroke-width: 0px; fill: rgb(123, 200, 246); fill-opacity: 1;"/></g><g class="point"><path d="M370.17,420V378.47H373.94V420Z" style="vector-effect: non-scaling-stroke; opacity: 1; stroke-width: 0px; fill: rgb(123, 200, 246); fill-opacity: 1;"/></g><g class="point"><path d="M373.59,420V372.99H377.36V420Z" style="vector-effect: non-scaling-stroke; opacity: 1; stroke-width: 0px; fill: rgb(123, 200, 246); fill-opacity: 1;"/></g><g class="point"><path d="M377.02,420V370.41H380.79V420Z" style="vector-effect: non-scaling-stroke; opacity: 1; stroke-width: 0px; fill: rgb(123, 200, 246); fill-opacity: 1;"/></g><g class="point"><path d="M380.45,420V304.51H384.21V420Z" style="vector-effect: non-scaling-stroke; opacity: 1; stroke-width: 0px; fill: rgb(123, 200, 246); fill-opacity: 1;"/></g><g class="point"><path d="M383.87,420V362.98H387.64V420Z" style="vector-effect: non-scaling-stroke; opacity: 1; stroke-width: 0px; fill: rgb(123, 200, 246); fill-opacity: 1;"/></g><g class="point"><path d="M387.3,420V372.89H391.06V420Z" style="vector-effect: non-scaling-stroke; opacity: 1; stroke-width: 0px; fill: rgb(123, 200, 246); fill-opacity: 1;"/></g><g class="point"><path d="M390.72,420V380.11H394.49V420Z" style="vector-effect: non-scaling-stroke; opacity: 1; stroke-width: 0px; fill: rgb(123, 200, 246); fill-opacity: 1;"/></g><g class="point"><path d="M394.15,420V373.8H397.92V420Z" style="vector-effect: non-scaling-stroke; opacity: 1; stroke-width: 0px; fill: rgb(123, 200, 246); fill-opacity: 1;"/></g><g class="point"><path d="M397.57,420V371.76H401.34V420Z" style="vector-effect: non-scaling-stroke; opacity: 1; stroke-width: 0px; fill: rgb(123, 200, 246); fill-opacity: 1;"/></g><g class="point"><path d="M401,420V372.48H404.77V420Z" style="vector-effect: non-scaling-stroke; opacity: 1; stroke-width: 0px; fill: rgb(123, 200, 246); fill-opacity: 1;"/></g><g class="point"><path d="M404.42,420V366.44H408.19V420Z" style="vector-effect: non-scaling-stroke; opacity: 1; stroke-width: 0px; fill: rgb(123, 200, 246); fill-opacity: 1;"/></g><g class="point"><path d="M407.85,420V374.88H411.62V420Z" style="vector-effect: non-scaling-stroke; opacity: 1; stroke-width: 0px; fill: rgb(123, 200, 246); fill-opacity: 1;"/></g><g class="point"><path d="M411.28,420V351.87H415.04V420Z" style="vector-effect: non-scaling-stroke; opacity: 1; stroke-width: 0px; fill: rgb(123, 200, 246); fill-opacity: 1;"/></g><g class="point"><path d="M414.7,420V377.59H418.47V420Z" style="vector-effect: non-scaling-stroke; opacity: 1; stroke-width: 0px; fill: rgb(123, 200, 246); fill-opacity: 1;"/></g><g class="point"><path d="M418.13,420V379.12H421.89V420Z" style="vector-effect: non-scaling-stroke; opacity: 1; stroke-width: 0px; fill: rgb(123, 200, 246); fill-opacity: 1;"/></g><g class="point"><path d="M421.55,420V355.1H425.32V420Z" style="vector-effect: non-scaling-stroke; opacity: 1; stroke-width: 0px; fill: rgb(123, 200, 246); fill-opacity: 1;"/></g><g class="point"><path d="M424.98,420V365.51H428.75V420Z" style="vector-effect: non-scaling-stroke; opacity: 1; stroke-width: 0px; fill: rgb(123, 200, 246); fill-opacity: 1;"/></g><g class="point"><path d="M428.4,420V372.84H432.17V420Z" style="vector-effect: non-scaling-stroke; opacity: 1; stroke-width: 0px; fill: rgb(123, 200, 246); fill-opacity: 1;"/></g><g class="point"><path d="M431.83,420V376.05H435.6V420Z" style="vector-effect: non-scaling-stroke; opacity: 1; stroke-width: 0px; fill: rgb(123, 200, 246); fill-opacity: 1;"/></g><g class="point"><path d="M435.25,420V383.38H439.02V420Z" style="vector-effect: non-scaling-stroke; opacity: 1; stroke-width: 0px; fill: rgb(123, 200, 246); fill-opacity: 1;"/></g><g class="point"><path d="M438.68,420V382.67H442.45V420Z" style="vector-effect: non-scaling-stroke; opacity: 1; stroke-width: 0px; fill: rgb(123, 200, 246); fill-opacity: 1;"/></g><g class="point"><path d="M442.11,420V374.62H445.87V420Z" style="vector-effect: non-scaling-stroke; opacity: 1; stroke-width: 0px; fill: rgb(123, 200, 246); fill-opacity: 1;"/></g><g class="point"><path d="M445.53,420V381.35H449.3V420Z" style="vector-effect: non-scaling-stroke; opacity: 1; stroke-width: 0px; fill: rgb(123, 200, 246); fill-opacity: 1;"/></g><g class="point"><path d="M448.96,420V378.11H452.72V420Z" style="vector-effect: non-scaling-stroke; opacity: 1; stroke-width: 0px; fill: rgb(123, 200, 246); fill-opacity: 1;"/></g><g class="point"><path d="M452.38,420V358.31H456.15V420Z" style="vector-effect: non-scaling-stroke; opacity: 1; stroke-width: 0px; fill: rgb(123, 200, 246); fill-opacity: 1;"/></g><g class="point"><path d="M455.81,420V362.31H459.58V420Z" style="vector-effect: non-scaling-stroke; opacity: 1; stroke-width: 0px; fill: rgb(123, 200, 246); fill-opacity: 1;"/></g><g class="point"><path d="M459.23,420V368.17H463V420Z" style="vector-effect: non-scaling-stroke; opacity: 1; stroke-width: 0px; fill: rgb(123, 200, 246); fill-opacity: 1;"/></g><g class="point"><path d="M462.66,420V381.54H466.43V420Z" style="vector-effect: non-scaling-stroke; opacity: 1; stroke-width: 0px; fill: rgb(123, 200, 246); fill-opacity: 1;"/></g><g class="point"><path d="M466.08,420V379.03H469.85V420Z" style="vector-effect: non-scaling-stroke; opacity: 1; stroke-width: 0px; fill: rgb(123, 200, 246); fill-opacity: 1;"/></g><g class="point"><path d="M469.51,420V386.71H473.28V420Z" style="vector-effect: non-scaling-stroke; opacity: 1; stroke-width: 0px; fill: rgb(123, 200, 246); fill-opacity: 1;"/></g><g class="point"><path d="M472.94,420V368.84H476.7V420Z" style="vector-effect: non-scaling-stroke; opacity: 1; stroke-width: 0px; fill: rgb(123, 200, 246); fill-opacity: 1;"/></g><g class="point"><path d="M476.36,420V362.22H480.13V420Z" style="vector-effect: non-scaling-stroke; opacity: 1; stroke-width: 0px; fill: rgb(123, 200, 246); fill-opacity: 1;"/></g><g class="point"><path d="M479.79,420V380.95H483.55V420Z" style="vector-effect: non-scaling-stroke; opacity: 1; stroke-width: 0px; fill: rgb(123, 200, 246); fill-opacity: 1;"/></g><g class="point"><path d="M483.21,420V361.61H486.98V420Z" style="vector-effect: non-scaling-stroke; opacity: 1; stroke-width: 0px; fill: rgb(123, 200, 246); fill-opacity: 1;"/></g><g class="point"><path d="M486.64,420V384.64H490.41V420Z" style="vector-effect: non-scaling-stroke; opacity: 1; stroke-width: 0px; fill: rgb(123, 200, 246); fill-opacity: 1;"/></g><g class="point"><path d="M490.06,420V352.17H493.83V420Z" style="vector-effect: non-scaling-stroke; opacity: 1; stroke-width: 0px; fill: rgb(123, 200, 246); fill-opacity: 1;"/></g><g class="point"><path d="M493.49,420V345.58H497.26V420Z" style="vector-effect: non-scaling-stroke; opacity: 1; stroke-width: 0px; fill: rgb(123, 200, 246); fill-opacity: 1;"/></g><g class="point"><path d="M496.91,420V377.52H500.68V420Z" style="vector-effect: non-scaling-stroke; opacity: 1; stroke-width: 0px; fill: rgb(123, 200, 246); fill-opacity: 1;"/></g><g class="point"><path d="M500.34,420V360.63H504.11V420Z" style="vector-effect: non-scaling-stroke; opacity: 1; stroke-width: 0px; fill: rgb(123, 200, 246); fill-opacity: 1;"/></g><g class="point"><path d="M503.77,420V368.92H507.53V420Z" style="vector-effect: non-scaling-stroke; opacity: 1; stroke-width: 0px; fill: rgb(123, 200, 246); fill-opacity: 1;"/></g><g class="point"><path d="M507.19,420V358.78H510.96V420Z" style="vector-effect: non-scaling-stroke; opacity: 1; stroke-width: 0px; fill: rgb(123, 200, 246); fill-opacity: 1;"/></g><g class="point"><path d="M510.62,420V382.15H514.38V420Z" style="vector-effect: non-scaling-stroke; opacity: 1; stroke-width: 0px; fill: rgb(123, 200, 246); fill-opacity: 1;"/></g><g class="point"><path d="M514.04,420V379.33H517.81V420Z" style="vector-effect: non-scaling-stroke; opacity: 1; stroke-width: 0px; fill: rgb(123, 200, 246); fill-opacity: 1;"/></g><g class="point"><path d="M517.47,420V374.31H521.24V420Z" style="vector-effect: non-scaling-stroke; opacity: 1; stroke-width: 0px; fill: rgb(123, 200, 246); fill-opacity: 1;"/></g><g class="point"><path d="M520.89,420V367.03H524.66V420Z" style="vector-effect: non-scaling-stroke; opacity: 1; stroke-width: 0px; fill: rgb(123, 200, 246); fill-opacity: 1;"/></g><g class="point"><path d="M524.32,420V370.74H528.09V420Z" style="vector-effect: non-scaling-stroke; opacity: 1; stroke-width: 0px; fill: rgb(123, 200, 246); fill-opacity: 1;"/></g><g class="point"><path d="M527.74,420V369.15H531.51V420Z" style="vector-effect: non-scaling-stroke; opacity: 1; stroke-width: 0px; fill: rgb(123, 200, 246); fill-opacity: 1;"/></g><g class="point"><path d="M531.17,420V381.92H534.94V420Z" style="vector-effect: non-scaling-stroke; opacity: 1; stroke-width: 0px; fill: rgb(123, 200, 246); fill-opacity: 1;"/></g><g class="point"><path d="M534.6,420V371.26H538.36V420Z" style="vector-effect: non-scaling-stroke; opacity: 1; stroke-width: 0px; fill: rgb(123, 200, 246); fill-opacity: 1;"/></g><g class="point"><path d="M538.02,420V378.65H541.79V420Z" style="vector-effect: non-scaling-stroke; opacity: 1; stroke-width: 0px; fill: rgb(123, 200, 246); fill-opacity: 1;"/></g><g class="point"><path d="M541.45,420V370.71H545.21V420Z" style="vector-effect: non-scaling-stroke; opacity: 1; stroke-width: 0px; fill: rgb(123, 200, 246); fill-opacity: 1;"/></g><g class="point"><path d="M544.87,420V376.49H548.64V420Z" style="vector-effect: non-scaling-stroke; opacity: 1; stroke-width: 0px; fill: rgb(123, 200, 246); fill-opacity: 1;"/></g><g class="point"><path d="M548.3,420V381.2H552.07V420Z" style="vector-effect: non-scaling-stroke; opacity: 1; stroke-width: 0px; fill: rgb(123, 200, 246); fill-opacity: 1;"/></g><g class="point"><path d="M551.72,420V361.45H555.49V420Z" style="vector-effect: non-scaling-stroke; opacity: 1; stroke-width: 0px; fill: rgb(123, 200, 246); fill-opacity: 1;"/></g><g class="point"><path d="M555.15,420V368.17H558.92V420Z" style="vector-effect: non-scaling-stroke; opacity: 1; stroke-width: 0px; fill: rgb(123, 200, 246); fill-opacity: 1;"/></g><g class="point"><path d="M558.57,420V367.09H562.34V420Z" style="vector-effect: non-scaling-stroke; opacity: 1; stroke-width: 0px; fill: rgb(123, 200, 246); fill-opacity: 1;"/></g><g class="point"><path d="M562,420V359.48H565.77V420Z" style="vector-effect: non-scaling-stroke; opacity: 1; stroke-width: 0px; fill: rgb(123, 200, 246); fill-opacity: 1;"/></g><g class="point"><path d="M565.43,420V355.51H569.19V420Z" style="vector-effect: non-scaling-stroke; opacity: 1; stroke-width: 0px; fill: rgb(123, 200, 246); fill-opacity: 1;"/></g><g class="point"><path d="M568.85,420V377.44H572.62V420Z" style="vector-effect: non-scaling-stroke; opacity: 1; stroke-width: 0px; fill: rgb(123, 200, 246); fill-opacity: 1;"/></g><g class="point"><path d="M572.28,420V373.29H576.04V420Z" style="vector-effect: non-scaling-stroke; opacity: 1; stroke-width: 0px; fill: rgb(123, 200, 246); fill-opacity: 1;"/></g><g class="point"><path d="M575.7,420V375.92H579.47V420Z" style="vector-effect: non-scaling-stroke; opacity: 1; stroke-width: 0px; fill: rgb(123, 200, 246); fill-opacity: 1;"/></g><g class="point"><path d="M579.13,420V368.23H582.9V420Z" style="vector-effect: non-scaling-stroke; opacity: 1; stroke-width: 0px; fill: rgb(123, 200, 246); fill-opacity: 1;"/></g><g class="point"><path d="M582.55,420V332.98H586.32V420Z" style="vector-effect: non-scaling-stroke; opacity: 1; stroke-width: 0px; fill: rgb(123, 200, 246); fill-opacity: 1;"/></g><g class="point"><path d="M585.98,420V364.33H589.75V420Z" style="vector-effect: non-scaling-stroke; opacity: 1; stroke-width: 0px; fill: rgb(123, 200, 246); fill-opacity: 1;"/></g><g class="point"><path d="M589.4,420V373.37H593.17V420Z" style="vector-effect: non-scaling-stroke; opacity: 1; stroke-width: 0px; fill: rgb(123, 200, 246); fill-opacity: 1;"/></g><g class="point"><path d="M592.83,420V367.17H596.6V420Z" style="vector-effect: non-scaling-stroke; opacity: 1; stroke-width: 0px; fill: rgb(123, 200, 246); fill-opacity: 1;"/></g><g class="point"><path d="M596.26,420V354.18H600.02V420Z" style="vector-effect: non-scaling-stroke; opacity: 1; stroke-width: 0px; fill: rgb(123, 200, 246); fill-opacity: 1;"/></g><g class="point"><path d="M599.68,420V343.41H603.45V420Z" style="vector-effect: non-scaling-stroke; opacity: 1; stroke-width: 0px; fill: rgb(123, 200, 246); fill-opacity: 1;"/></g><g class="point"><path d="M603.11,420V286.53H606.87V420Z" style="vector-effect: non-scaling-stroke; opacity: 1; stroke-width: 0px; fill: rgb(123, 200, 246); fill-opacity: 1;"/></g><g class="point"><path d="M606.53,420V305.25H610.3V420Z" style="vector-effect: non-scaling-stroke; opacity: 1; stroke-width: 0px; fill: rgb(123, 200, 246); fill-opacity: 1;"/></g><g class="point"><path d="M609.96,420V327.74H613.73V420Z" style="vector-effect: non-scaling-stroke; opacity: 1; stroke-width: 0px; fill: rgb(123, 200, 246); fill-opacity: 1;"/></g><g class="point"><path d="M613.38,420V361.15H617.15V420Z" style="vector-effect: non-scaling-stroke; opacity: 1; stroke-width: 0px; fill: rgb(123, 200, 246); fill-opacity: 1;"/></g><g class="point"><path d="M616.81,420V357.52H620.58V420Z" style="vector-effect: non-scaling-stroke; opacity: 1; stroke-width: 0px; fill: rgb(123, 200, 246); fill-opacity: 1;"/></g><g class="point"><path d="M620.23,420V375.94H624V420Z" style="vector-effect: non-scaling-stroke; opacity: 1; stroke-width: 0px; fill: rgb(123, 200, 246); fill-opacity: 1;"/></g><g class="point"><path d="M623.66,420V375.84H627.43V420Z" style="vector-effect: non-scaling-stroke; opacity: 1; stroke-width: 0px; fill: rgb(123, 200, 246); fill-opacity: 1;"/></g><g class="point"><path d="M627.09,420V363.21H630.85V420Z" style="vector-effect: non-scaling-stroke; opacity: 1; stroke-width: 0px; fill: rgb(123, 200, 246); fill-opacity: 1;"/></g><g class="point"><path d="M630.51,420V366.76H634.28V420Z" style="vector-effect: non-scaling-stroke; opacity: 1; stroke-width: 0px; fill: rgb(123, 200, 246); fill-opacity: 1;"/></g><g class="point"><path d="M633.94,420V373.1H637.7V420Z" style="vector-effect: non-scaling-stroke; opacity: 1; stroke-width: 0px; fill: rgb(123, 200, 246); fill-opacity: 1;"/></g><g class="point"><path d="M637.36,420V366.49H641.13V420Z" style="vector-effect: non-scaling-stroke; opacity: 1; stroke-width: 0px; fill: rgb(123, 200, 246); fill-opacity: 1;"/></g><g class="point"><path d="M640.79,420V372.48H644.56V420Z" style="vector-effect: non-scaling-stroke; opacity: 1; stroke-width: 0px; fill: rgb(123, 200, 246); fill-opacity: 1;"/></g><g class="point"><path d="M644.21,420V377.91H647.98V420Z" style="vector-effect: non-scaling-stroke; opacity: 1; stroke-width: 0px; fill: rgb(123, 200, 246); fill-opacity: 1;"/></g><g class="point"><path d="M647.64,420V357.28H651.41V420Z" style="vector-effect: non-scaling-stroke; opacity: 1; stroke-width: 0px; fill: rgb(123, 200, 246); fill-opacity: 1;"/></g><g class="point"><path d="M651.06,420V379.35H654.83V420Z" style="vector-effect: non-scaling-stroke; opacity: 1; stroke-width: 0px; fill: rgb(123, 200, 246); fill-opacity: 1;"/></g><g class="point"><path d="M654.49,420V329.76H658.26V420Z" style="vector-effect: non-scaling-stroke; opacity: 1; stroke-width: 0px; fill: rgb(123, 200, 246); fill-opacity: 1;"/></g><g class="point"><path d="M657.92,420V348.23H661.68V420Z" style="vector-effect: non-scaling-stroke; opacity: 1; stroke-width: 0px; fill: rgb(123, 200, 246); fill-opacity: 1;"/></g><g class="point"><path d="M661.34,420V358.75H665.11V420Z" style="vector-effect: non-scaling-stroke; opacity: 1; stroke-width: 0px; fill: rgb(123, 200, 246); fill-opacity: 1;"/></g><g class="point"><path d="M664.77,420V366.34H668.53V420Z" style="vector-effect: non-scaling-stroke; opacity: 1; stroke-width: 0px; fill: rgb(123, 200, 246); fill-opacity: 1;"/></g><g class="point"><path d="M668.19,420V376.31H671.96V420Z" style="vector-effect: non-scaling-stroke; opacity: 1; stroke-width: 0px; fill: rgb(123, 200, 246); fill-opacity: 1;"/></g><g class="point"><path d="M671.62,420V376.82H675.39V420Z" style="vector-effect: non-scaling-stroke; opacity: 1; stroke-width: 0px; fill: rgb(123, 200, 246); fill-opacity: 1;"/></g><g class="point"><path d="M675.04,420V375.01H678.81V420Z" style="vector-effect: non-scaling-stroke; opacity: 1; stroke-width: 0px; fill: rgb(123, 200, 246); fill-opacity: 1;"/></g><g class="point"><path d="M678.47,420V369.45H682.24V420Z" style="vector-effect: non-scaling-stroke; opacity: 1; stroke-width: 0px; fill: rgb(123, 200, 246); fill-opacity: 1;"/></g><g class="point"><path d="M681.89,420V364.65H685.66V420Z" style="vector-effect: non-scaling-stroke; opacity: 1; stroke-width: 0px; fill: rgb(123, 200, 246); fill-opacity: 1;"/></g><g class="point"><path d="M685.32,420V358.65H689.09V420Z" style="vector-effect: non-scaling-stroke; opacity: 1; stroke-width: 0px; fill: rgb(123, 200, 246); fill-opacity: 1;"/></g><g class="point"><path d="M688.75,420V353.99H692.51V420Z" style="vector-effect: non-scaling-stroke; opacity: 1; stroke-width: 0px; fill: rgb(123, 200, 246); fill-opacity: 1;"/></g><g class="point"><path d="M692.17,420V349.18H695.94V420Z" style="vector-effect: non-scaling-stroke; opacity: 1; stroke-width: 0px; fill: rgb(123, 200, 246); fill-opacity: 1;"/></g><g class="point"><path d="M695.6,420V369.18H699.36V420Z" style="vector-effect: non-scaling-stroke; opacity: 1; stroke-width: 0px; fill: rgb(123, 200, 246); fill-opacity: 1;"/></g><g class="point"><path d="M699.02,420V367.63H702.79V420Z" style="vector-effect: non-scaling-stroke; opacity: 1; stroke-width: 0px; fill: rgb(123, 200, 246); fill-opacity: 1;"/></g><g class="point"><path d="M702.45,420V346.52H706.22V420Z" style="vector-effect: non-scaling-stroke; opacity: 1; stroke-width: 0px; fill: rgb(123, 200, 246); fill-opacity: 1;"/></g><g class="point"><path d="M705.87,420V327.28H709.64V420Z" style="vector-effect: non-scaling-stroke; opacity: 1; stroke-width: 0px; fill: rgb(123, 200, 246); fill-opacity: 1;"/></g><g class="point"><path d="M709.3,420V346.02H713.07V420Z" style="vector-effect: non-scaling-stroke; opacity: 1; stroke-width: 0px; fill: rgb(123, 200, 246); fill-opacity: 1;"/></g><g class="point"><path d="M712.72,420V362.6H716.49V420Z" style="vector-effect: non-scaling-stroke; opacity: 1; stroke-width: 0px; fill: rgb(123, 200, 246); fill-opacity: 1;"/></g><g class="point"><path d="M716.15,420V354.28H719.92V420Z" style="vector-effect: non-scaling-stroke; opacity: 1; stroke-width: 0px; fill: rgb(123, 200, 246); fill-opacity: 1;"/></g><g class="point"><path d="M719.57,420V348.79H723.34V420Z" style="vector-effect: non-scaling-stroke; opacity: 1; stroke-width: 0px; fill: rgb(123, 200, 246); fill-opacity: 1;"/></g><g class="point"><path d="M723,420V377.19H726.77V420Z" style="vector-effect: non-scaling-stroke; opacity: 1; stroke-width: 0px; fill: rgb(123, 200, 246); fill-opacity: 1;"/></g><g class="point"><path d="M726.43,420V369.2H730.19V420Z" style="vector-effect: non-scaling-stroke; opacity: 1; stroke-width: 0px; fill: rgb(123, 200, 246); fill-opacity: 1;"/></g><g class="point"><path d="M729.85,420V367.25H733.62V420Z" style="vector-effect: non-scaling-stroke; opacity: 1; stroke-width: 0px; fill: rgb(123, 200, 246); fill-opacity: 1;"/></g><g class="point"><path d="M733.28,420V355.53H737.05V420Z" style="vector-effect: non-scaling-stroke; opacity: 1; stroke-width: 0px; fill: rgb(123, 200, 246); fill-opacity: 1;"/></g><g class="point"><path d="M736.7,420V376.63H740.47V420Z" style="vector-effect: non-scaling-stroke; opacity: 1; stroke-width: 0px; fill: rgb(123, 200, 246); fill-opacity: 1;"/></g><g class="point"><path d="M740.13,420V354.27H743.9V420Z" style="vector-effect: non-scaling-stroke; opacity: 1; stroke-width: 0px; fill: rgb(123, 200, 246); fill-opacity: 1;"/></g><g class="point"><path d="M743.55,420V365.64H747.32V420Z" style="vector-effect: non-scaling-stroke; opacity: 1; stroke-width: 0px; fill: rgb(123, 200, 246); fill-opacity: 1;"/></g><g class="point"><path d="M746.98,420V371.59H750.75V420Z" style="vector-effect: non-scaling-stroke; opacity: 1; stroke-width: 0px; fill: rgb(123, 200, 246); fill-opacity: 1;"/></g><g class="point"><path d="M750.4,420V328.68H754.17V420Z" style="vector-effect: non-scaling-stroke; opacity: 1; stroke-width: 0px; fill: rgb(123, 200, 246); fill-opacity: 1;"/></g><g class="point"><path d="M753.83,420V366.72H757.6V420Z" style="vector-effect: non-scaling-stroke; opacity: 1; stroke-width: 0px; fill: rgb(123, 200, 246); fill-opacity: 1;"/></g><g class="point"><path d="M757.26,420V343.41H761.02V420Z" style="vector-effect: non-scaling-stroke; opacity: 1; stroke-width: 0px; fill: rgb(123, 200, 246); fill-opacity: 1;"/></g><g class="point"><path d="M760.68,420V353.66H764.45V420Z" style="vector-effect: non-scaling-stroke; opacity: 1; stroke-width: 0px; fill: rgb(123, 200, 246); fill-opacity: 1;"/></g><g class="point"><path d="M764.11,420V369.67H767.88V420Z" style="vector-effect: non-scaling-stroke; opacity: 1; stroke-width: 0px; fill: rgb(123, 200, 246); fill-opacity: 1;"/></g><g class="point"><path d="M767.53,420V368.11H771.3V420Z" style="vector-effect: non-scaling-stroke; opacity: 1; stroke-width: 0px; fill: rgb(123, 200, 246); fill-opacity: 1;"/></g><g class="point"><path d="M770.96,420V346.2H774.73V420Z" style="vector-effect: non-scaling-stroke; opacity: 1; stroke-width: 0px; fill: rgb(123, 200, 246); fill-opacity: 1;"/></g><g class="point"><path d="M774.38,420V350.63H778.15V420Z" style="vector-effect: non-scaling-stroke; opacity: 1; stroke-width: 0px; fill: rgb(123, 200, 246); fill-opacity: 1;"/></g><g class="point"><path d="M777.81,420V336.85H781.58V420Z" style="vector-effect: non-scaling-stroke; opacity: 1; stroke-width: 0px; fill: rgb(123, 200, 246); fill-opacity: 1;"/></g><g class="point"><path d="M781.23,420V360.49H785V420Z" style="vector-effect: non-scaling-stroke; opacity: 1; stroke-width: 0px; fill: rgb(123, 200, 246); fill-opacity: 1;"/></g><g class="point"><path d="M784.66,420V370.19H788.43V420Z" style="vector-effect: non-scaling-stroke; opacity: 1; stroke-width: 0px; fill: rgb(123, 200, 246); fill-opacity: 1;"/></g><g class="point"><path d="M788.09,420V361.06H791.85V420Z" style="vector-effect: non-scaling-stroke; opacity: 1; stroke-width: 0px; fill: rgb(123, 200, 246); fill-opacity: 1;"/></g><g class="point"><path d="M791.51,420V350.37H795.28V420Z" style="vector-effect: non-scaling-stroke; opacity: 1; stroke-width: 0px; fill: rgb(123, 200, 246); fill-opacity: 1;"/></g><g class="point"><path d="M794.94,420V352.5H798.71V420Z" style="vector-effect: non-scaling-stroke; opacity: 1; stroke-width: 0px; fill: rgb(123, 200, 246); fill-opacity: 1;"/></g><g class="point"><path d="M798.36,420V365.84H802.13V420Z" style="vector-effect: non-scaling-stroke; opacity: 1; stroke-width: 0px; fill: rgb(123, 200, 246); fill-opacity: 1;"/></g><g class="point"><path d="M801.79,420V364.02H805.56V420Z" style="vector-effect: non-scaling-stroke; opacity: 1; stroke-width: 0px; fill: rgb(123, 200, 246); fill-opacity: 1;"/></g><g class="point"><path d="M805.21,420V374H808.98V420Z" style="vector-effect: non-scaling-stroke; opacity: 1; stroke-width: 0px; fill: rgb(123, 200, 246); fill-opacity: 1;"/></g><g class="point"><path d="M808.64,420V360.02H812.41V420Z" style="vector-effect: non-scaling-stroke; opacity: 1; stroke-width: 0px; fill: rgb(123, 200, 246); fill-opacity: 1;"/></g><g class="point"><path d="M812.06,420V366.75H815.83V420Z" style="vector-effect: non-scaling-stroke; opacity: 1; stroke-width: 0px; fill: rgb(123, 200, 246); fill-opacity: 1;"/></g><g class="point"><path d="M815.49,420V374.77H819.26V420Z" style="vector-effect: non-scaling-stroke; opacity: 1; stroke-width: 0px; fill: rgb(123, 200, 246); fill-opacity: 1;"/></g></g></g></g><g class="scatterlayer mlayer"><g class="trace scatter tracec4ddf4" style="stroke-miterlimit: 2; opacity: 1;"><g class="fills"/><g class="errorbars"/><g class="lines"><path class="js-line" d="M43.2,303.1L820.8,303.1" style="vector-effect: non-scaling-stroke; fill: none; stroke: rgb(102, 187, 106); stroke-opacity: 1; stroke-width: 2.7px; opacity: 1;"/></g><g class="points"/><g class="text"><g class="textpoint" transform="translate(0,-2.5)"><text x="43.2" y="303.1" text-anchor="start" style="font-family: 'Open Sans', verdana, arial, sans-serif; font-size: 10px; fill: rgb(68, 68, 68); fill-opacity: 1; white-space: pre;">16.7ms(60fps)</text></g><g class="textpoint"/></g></g><g class="trace scatter trace38ef4e" style="stroke-miterlimit: 2; opacity: 1;"><g class="fills"/><g class="errorbars"/><g class="lines"><path class="js-line" d="M43.2,186.9L820.8,186.9" style="vector-effect: non-scaling-stroke; fill: none; stroke: rgb(255, 167, 38); stroke-opacity: 1; stroke-width: 2.7px; opacity: 1;"/></g><g class="points"/><g class="text"><g class="textpoint" transform="translate(0,-2.5)"><text x="43.2" y="186.9" text-anchor="start" style="font-family: 'Open Sans', verdana, arial, sans-serif; font-size: 10px; fill: rgb(68, 68, 68); fill-opacity: 1; white-space: pre;">33.3ms(30fps)</text></g><g class="textpoint"/></g></g><g class="trace scatter trace5b6921" style="stroke-miterlimit: 2; opacity: 1;"><g class="fills"/><g class="errorbars"/><g class="lines"><path class="js-line" d="M43.2,361.9L820.8,361.9" style="vector-effect: non-scaling-stroke; fill: none; stroke: rgb(118, 255, 3); stroke-opacity: 1; stroke-width: 2.7px; opacity: 1;"/></g><g class="points"/><g class="text"><g class="textpoint" transform="translate(0,-2.5)"><text x="43.2" y="361.9" text-anchor="start" style="font-family: 'Open Sans', verdana, arial, sans-serif; font-size: 10px; fill: rgb(68, 68, 68); fill-opacity: 1; white-space: pre;">8.3ms(120fps)</text></g><g class="textpoint"/></g></g></g></g><g class="overplot"/><path class="xlines-above crisp" d="M0,0" style="fill: none;"/><path class="ylines-above crisp" d="M0,0" style="fill: none;"/><g class="overlines-above"/><g class="xaxislayer-above"><g class="xtick"><text text-anchor="middle" x="0" y="531" transform="translate(123.2,0)" style="font-family: 'Open Sans', verdana, arial, sans-serif; font-size: 10px; fill: rgb(68, 68, 68); fill-opacity: 1; white-space: pre;">0</text></g><g class="xtick"><text text-anchor="middle" x="0" y="531" transform="translate(294.48,0)" style="font-family: 'Open Sans', verdana, arial, sans-serif; font-size: 10px; fill: rgb(68, 68, 68); fill-opacity: 1; white-space: pre;">50</text></g><g class="xtick"><text text-anchor="middle" x="0" y="531" transform="translate(465.76,0)" style="font-family: 'Open Sans', verdana, arial, sans-serif; font-size: 10px; fill: rgb(68, 68, 68); fill-opacity: 1; white-space: pre;">100</text></g><g class="xtick"><text text-anchor="middle" x="0" y="531" transform="translate(637.03,0)" style="font-family: 'Open Sans', verdana, arial, sans-serif; font-size: 10px; fill: rgb(68, 68, 68); fill-opacity: 1; white-space: pre;">150</text></g><g class="xtick"><text text-anchor="middle" x="0" y="531" transform="translate(808.31,0)" style="font-family: 'Open Sans', verdana, arial, sans-serif; font-size: 10px; fill: rgb(68, 68, 68); fill-opacity: 1; white-space: pre;">200</text></g></g><g class="yaxislayer-above"><g class="ytick"><text text-anchor="end" x="79" y="3.5" transform="translate(0,520)" style="font-family: 'Open Sans', verdana, arial, sans-serif; font-size: 10px; fill: rgb(68, 68, 68); fill-opacity: 1; white-space: pre;">0</text></g><g class="ytick"><text text-anchor="end" x="79" y="3.5" transform="translate(0,450)" style="font-family: 'Open Sans', verdana, arial, sans-serif; font-size: 10px; fill: rgb(68, 68, 68); fill-opacity: 1; white-space: pre;">10</text></g><g class="ytick"><text text-anchor="end" x="79" y="3.5" transform="translate(0,380)" style="font-family: 'Open Sans', verdana, arial, sans-serif; font-size: 10px; fill: rgb(68, 68, 68); fill-opacity: 1; white-space: pre;">20</text></g><g class="ytick"><text text-anchor="end" x="79" y="3.5" transform="translate(0,310)" style="font-family: 'Open Sans', verdana, arial, sans-serif; font-size: 10px; fill: rgb(68, 68, 68); fill-opacity: 1; white-space: pre;">30</text></g><g class="ytick"><text text-anchor="end" x="79" y="3.5" transform="translate(0,240)" style="font-family: 'Open Sans', verdana, arial, sans-serif; font-size: 10px; fill: rgb(68, 68, 68); fill-opacity: 1; white-space: pre;">40</text></g><g class="ytick"><text text-anchor="end" x="79" y="3.5" transform="translate(0,170)" style="font-family: 'Open Sans', verdana, arial, sans-serif; font-size: 10px; fill: rgb(68, 68, 68); fill-opacity: 1; white-space: pre;">50</text></g><g class="ytick"><text text-anchor="end" x="79" y="3.5" transform="translate(0,100)" style="font-family: 'Open Sans', verdana, arial, sans-serif; font-size: 10px; fill: rgb(68, 68, 68); fill-opacity: 1; white-space: pre;">60</text></g></g><g class="overaxes-above"/></g></g><g class="polarlayer"/><g class="ternarylayer"/><g class="geolayer"/><g class="funnelarealayer"/><g class="pielayer"/><g class="treemaplayer"/><g class="sunburstlayer"/><g class="glimages"/><defs id="topdefs-afea75"><g class="clips"/></defs><g class="layer-above"><g class="imagelayer"/><g class="shapelayer"/></g><g class="infolayer"><g class="g-gtitle"><text class="gtitle" x="512" y="50" text-anchor="middle" dy="0em" style="font-family: 'Open Sans', verdana, arial, sans-serif; font-size: 14px; fill: rgb(68, 68, 68); opacity: 1; font-weight: normal; white-space: pre;">samsung SM-G973F. Benchmark <tspan style="font-weight:bold">lazyListScroll</tspan>. Compose 1.0.3</text></g><g class="g-xtitle"><text class="xtitle" x="512" y="566" text-anchor="middle" style="font-family: 'Open Sans', verdana, arial, sans-serif; font-size: 12px; fill: rgb(68, 68, 68); opacity: 1; font-weight: normal; white-space: pre;">Frame</text></g><g class="g-ytitle"><text class="ytitle" transform="rotate(-90,46,310)" x="46" y="310" text-anchor="middle" style="font-family: 'Open Sans', verdana, arial, sans-serif; font-size: 12px; fill: rgb(68, 68, 68); opacity: 1; font-weight: normal; white-space: pre;">Frametime, ms</text></g></g></svg>