<svg class="main-svg" xmlns="http://www.w3.org/2000/svg" xmlns:xlink="http://www.w3.org/1999/xlink" width="1024" height="512" style="" viewBox="0 0 1024 512"><rect x="0" y="0" width="1024" height="512" style="fill: rgb(255, 255, 255); fill-opacity: 1;"/><defs id="defs-7fe632"><g class="clips"><clipPath id="clip7fe632xyplot" class="plotclip"><rect width="864" height="332"/></clipPath><clipPath class="axesclip" id="clip7fe632x"><rect x="80" y="0" width="864" height="512"/></clipPath><clipPath class="axesclip" id="clip7fe632y"><rect x="0" y="100" width="1024" height="332"/></clipPath><clipPath class="axesclip" id="clip7fe632xy"><rect x="80" y="100" width="864" height="332"/></clipPath></g><g class="gradients"/></defs><g class="bglayer"/><g class="layer-below"><g class="imagelayer"/><g class="shapelayer"/></g><g class="cartesianlayer"><g class="subplot xy"><g class="layer-subplot"><g class="shapelayer"/><g class="imagelayer"/></g><g class="gridlayer"><g class="x"/><g class="y"/></g><g class="zerolinelayer"><path class="yzl zl crisp" transform="translate(0,432)" d="M80,0h864" style="stroke: rgb(68, 68, 68); stroke-opacity: 1; stroke-width: 1px;"/></g><path class="xlines-below"/><path class="ylines-below"/><g class="overlines-below"/><g class="xaxislayer-below"/><g class="yaxislayer-below"/><g class="overaxes-below"/><g class="plot" transform="translate(80,100)" clip-path="url('#clip7fe632xyplot')"><g class="scatterlayer mlayer"><g class="trace scatter tracea88e7d" style="stroke-miterlimit: 2;"><g class="fills"><g><path class="js-fill" d="M814.55,332L49.45,332L49.45,0Q176.96,0 240.72,0C304.48,0 368.24,0 432,0C495.76,0 559.52,0 623.28,0Q687.04,0 814.55,0" style="fill: rgb(123, 200, 246); fill-opacity: 1; stroke-width: 0;"/></g></g><g class="errorbars"/><g class="lines"/><g class="points"/><g class="text"/></g><g class="trace scatter tracef7f5a4" style="stroke-miterlimit: 2;"><g class="fills"><g><path class="js-fill" d="M814.55,332L49.45,332L49.45,72.99Q176.92,50.43 240.72,49.7C304.44,48.97 368.16,65.52 432,68.57C495.68,71.61 560.46,57.19 623.28,68.03Q688.03,79.2 814.55,136.66" style="fill: rgb(12, 181, 119); fill-opacity: 1; stroke-width: 0;"/></g></g><g class="errorbars"/><g class="lines"><path class="js-line" d="M49.45,72.99Q176.92,50.43 240.72,49.7C304.44,48.97 368.16,65.52 432,68.57C495.68,71.61 560.46,57.19 623.28,68.03Q688.03,79.2 814.55,136.66" style="vector-effect: non-scaling-stroke; fill: none; stroke: rgb(255, 255, 255); stroke-opacity: 1; stroke-width: 3px; opacity: 1;"/></g><g class="points"/><g class="text"/></g><g class="trace scatter tracebdbb3f" style="stroke-miterlimit: 2; opacity: 1;"><g class="fills"/><g class="errorbars"/><g class="lines"><path class="js-line" d="M49.45,72.99L49.45,193.67" style="vector-effect: non-scaling-stroke; fill: none; stroke: rgb(54, 55, 55); stroke-opacity: 1; stroke-width: 0.75px; opacity: 1; stroke-dasharray: 3px, 3px;"/></g><g class="points"/><g class="text"/></g><g class="trace scatter tracee4a2af" style="stroke-miterlimit: 2; opacity: 1;"><g class="fills"/><g class="errorbars"/><g class="lines"><path class="js-line" d="M49.45,72.99L49.45,55.33" style="vector-effect: non-scaling-stroke; fill: none; stroke: rgb(54, 55, 55); stroke-opacity: 1; stroke-width: 0.75px; opacity: 1; stroke-dasharray: 3px, 3px;"/></g><g class="points"/><g class="text"/></g><g class="trace scatter trace34b6cc" style="stroke-miterlimit: 2; opacity: 1;"><g class="fills"/><g class="errorbars"/><g class="lines"><path class="js-line" d="M240.72,49.7L240.72,193.67" style="vector-effect: non-scaling-stroke; fill: none; stroke: rgb(54, 55, 55); stroke-opacity: 1; stroke-width: 0.75px; opacity: 1; stroke-dasharray: 3px, 3px;"/></g><g class="points"/><g class="text"/></g><g class="trace scatter trace082403" style="stroke-miterlimit: 2; opacity: 1;"><g class="fills"/><g class="errorbars"/><g class="lines"><path class="js-line" d="M240.72,49.7L240.72,55.33" style="vector-effect: non-scaling-stroke; fill: none; stroke: rgb(54, 55, 55); stroke-opacity: 1; stroke-width: 0.75px; opacity: 1; stroke-dasharray: 3px, 3px;"/></g><g class="points"/><g class="text"/></g><g class="trace scatter trace281c4f" style="stroke-miterlimit: 2; opacity: 1;"><g class="fills"/><g class="errorbars"/><g class="lines"><path class="js-line" d="M432,68.57L432,193.67" style="vector-effect: non-scaling-stroke; fill: none; stroke: rgb(54, 55, 55); stroke-opacity: 1; stroke-width: 0.75px; opacity: 1; stroke-dasharray: 3px, 3px;"/></g><g class="points"/><g class="text"/></g><g class="trace scatter trace3a7418" style="stroke-miterlimit: 2; opacity: 1;"><g class="fills"/><g class="errorbars"/><g class="lines"><path class="js-line" d="M432,68.57L432,55.33" style="vector-effect: non-scaling-stroke; fill: none; stroke: rgb(54, 55, 55); stroke-opacity: 1; stroke-width: 0.75px; opacity: 1; stroke-dasharray: 3px, 3px;"/></g><g class="points"/><g class="text"/></g><g class="trace scatter traceff04a4" style="stroke-miterlimit: 2; opacity: 1;"><g class="fills"/><g class="errorbars"/><g class="lines"><path class="js-line" d="M623.28,68.03L623.28,193.67" style="vector-effect: non-scaling-stroke; fill: none; stroke: rgb(54, 55, 55); stroke-opacity: 1; stroke-width: 0.75px; opacity: 1; stroke-dasharray: 3px, 3px;"/></g><g class="points"/><g class="text"/></g><g class="trace scatter trace8746e8" style="stroke-miterlimit: 2; opacity: 1;"><g class="fills"/><g class="errorbars"/><g class="lines"><path class="js-line" d="M623.28,68.03L623.28,55.33" style="vector-effect: non-scaling-stroke; fill: none; stroke: rgb(54, 55, 55); stroke-opacity: 1; stroke-width: 0.75px; opacity: 1; stroke-dasharray: 3px, 3px;"/></g><g class="points"/><g class="text"/></g><g class="trace scatter trace32c5ac" style="stroke-miterlimit: 2; opacity: 1;"><g class="fills"/><g class="errorbars"/><g class="lines"><path class="js-line" d="M814.55,136.66L814.55,193.67" style="vector-effect: non-scaling-stroke; fill: none; stroke: rgb(54, 55, 55); stroke-opacity: 1; stroke-width: 0.75px; opacity: 1; stroke-dasharray: 3px, 3px;"/></g><g class="points"/><g class="text"/></g><g class="trace scatter trace92e139" style="stroke-miterlimit: 2; opacity: 1;"><g class="fills"/><g class="errorbars"/><g class="lines"><path class="js-line" d="M814.55,136.66L814.55,55.33" style="vector-effect: non-scaling-stroke; fill: none; stroke: rgb(54, 55, 55); stroke-opacity: 1; stroke-width: 0.75px; opacity: 1; stroke-dasharray: 3px, 3px;"/></g><g class="points"/><g class="text"/></g><g class="trace scatter trace18abb5" style="stroke-miterlimit: 2; opacity: 1;"><g class="fills"/><g class="errorbars"/><g class="lines"/><g class="points"><path class="point" transform="translate(49.45,72.99)" d="M5,0A5,5 0 1,1 0,-5A5,5 0 0,1 5,0Z" style="opacity: 1; stroke-width: 0px; fill: rgb(255, 255, 255); fill-opacity: 1;"/><path class="point" transform="translate(240.72,49.7)" d="M5,0A5,5 0 1,1 0,-5A5,5 0 0,1 5,0Z" style="opacity: 1; stroke-width: 0px; fill: rgb(255, 255, 255); fill-opacity: 1;"/><path class="point" transform="translate(432,68.57)" d="M5,0A5,5 0 1,1 0,-5A5,5 0 0,1 5,0Z" style="opacity: 1; stroke-width: 0px; fill: rgb(255, 255, 255); fill-opacity: 1;"/><path class="point" transform="translate(623.28,68.03)" d="M5,0A5,5 0 1,1 0,-5A5,5 0 0,1 5,0Z" style="opacity: 1; stroke-width: 0px; fill: rgb(255, 255, 255); fill-opacity: 1;"/><path class="point" transform="translate(814.55,136.66)" d="M5,0A5,5 0 1,1 0,-5A5,5 0 0,1 5,0Z" style="opacity: 1; stroke-width: 0px; fill: rgb(255, 255, 255); fill-opacity: 1;"/></g><g class="text"/></g><g class="trace scatter trace2757a5" style="stroke-miterlimit: 2; opacity: 1;"><g class="fills"/><g class="errorbars"/><g class="lines"><path class="js-line" d="M49.45,193.67Q176.96,193.67 240.72,193.67C304.48,193.67 368.24,193.67 432,193.67C495.76,193.67 559.52,193.67 623.28,193.67Q687.04,193.67 814.55,193.67" style="vector-effect: non-scaling-stroke; fill: none; stroke: rgb(7, 13, 13); stroke-opacity: 1; stroke-width: 0.95px; opacity: 1; stroke-dasharray: 3px, 3px;"/></g><g class="points"/><g class="text"><g class="textpoint" transform="translate(0,-3)"><text x="49.45" y="193.67" text-anchor="start" style="font-family: 'Open Sans', verdana, arial, sans-serif; font-size: 12px; fill: rgb(68, 68, 68); fill-opacity: 1; white-space: pre;">Good</text></g><g class="textpoint"/><g class="textpoint"/><g class="textpoint"/><g class="textpoint"/></g></g><g class="trace scatter trace92187e" style="stroke-miterlimit: 2; opacity: 1;"><g class="fills"/><g class="errorbars"/><g class="lines"><path class="js-line" d="M49.45,55.33Q176.96,55.33 240.72,55.33C304.48,55.33 368.24,55.33 432,55.33C495.76,55.33 559.52,55.33 623.28,55.33Q687.04,55.33 814.55,55.33" style="vector-effect: non-scaling-stroke; fill: none; stroke: rgb(7, 13, 13); stroke-opacity: 1; stroke-width: 0.95px; opacity: 1; stroke-dasharray: 3px, 3px;"/></g><g class="points"/><g class="text"><g class="textpoint" transform="translate(0,-3)"><text x="49.45" y="55.33" text-anchor="start" style="font-family: 'Open Sans', verdana, arial, sans-serif; font-size: 12px; fill: rgb(68, 68, 68); fill-opacity: 1; white-space: pre;">Excellent</text></g><g class="textpoint"/><g class="textpoint"/><g class="textpoint"/><g class="textpoint"/></g></g></g></g><g class="overplot"/><path class="xlines-above crisp" d="M0,0" style="fill: none;"/><path class="ylines-above crisp" d="M79.5,100V432" style="fill: none; stroke-width: 1px; stroke: rgb(0, 0, 0); stroke-opacity: 1;"/><g class="overlines-above"/><g class="xaxislayer-above"><g class="xtick"><text text-anchor="middle" x="0" y="445" transform="translate(129.45,0)" style="font-family: 'Open Sans', verdana, arial, sans-serif; font-size: 12px; fill: rgb(68, 68, 68); fill-opacity: 1; white-space: pre;">1.0.3</text></g><g class="xtick"><text text-anchor="middle" x="0" y="445" transform="translate(320.72,0)" style="font-family: 'Open Sans', verdana, arial, sans-serif; font-size: 12px; fill: rgb(68, 68, 68); fill-opacity: 1; white-space: pre;">1.0.4</text></g><g class="xtick"><text text-anchor="middle" x="0" y="445" transform="translate(512,0)" style="font-family: 'Open Sans', verdana, arial, sans-serif; font-size: 12px; fill: rgb(68, 68, 68); fill-opacity: 1; white-space: pre;">1.0.5</text></g><g class="xtick"><text text-anchor="middle" x="0" y="445" transform="translate(703.28,0)" style="font-family: 'Open Sans', verdana, arial, sans-serif; font-size: 12px; fill: rgb(68, 68, 68); fill-opacity: 1; white-space: pre;">1.1.0</text></g><g class="xtick"><text text-anchor="middle" x="0" y="445" transform="translate(894.55,0)" style="font-family: 'Open Sans', verdana, arial, sans-serif; font-size: 12px; fill: rgb(68, 68, 68); fill-opacity: 1; white-space: pre;">1.2.0-rc03</text></g></g><g class="yaxislayer-above"><g class="ytick"><text text-anchor="end" x="76.6" y="4.199999999999999" transform="translate(0,432)" style="font-family: 'Open Sans', verdana, arial, sans-serif; font-size: 12px; fill: rgb(68, 68, 68); fill-opacity: 1; white-space: pre;">Low</text></g><g class="ytick"><text text-anchor="end" x="76.6" y="4.199999999999999" transform="translate(0,293.66999999999996)" style="font-family: 'Open Sans', verdana, arial, sans-serif; font-size: 12px; fill: rgb(68, 68, 68); fill-opacity: 1; white-space: pre;"></text></g><g class="ytick"><text text-anchor="end" x="76.6" y="4.199999999999999" transform="translate(0,100)" style="font-family: 'Open Sans', verdana, arial, sans-serif; font-size: 12px; fill: rgb(68, 68, 68); fill-opacity: 1; white-space: pre;">High</text></g></g><g class="overaxes-above"/></g></g><g class="polarlayer"/><g class="ternarylayer"/><g class="geolayer"/><g class="funnelarealayer"/><g class="pielayer"/><g class="treemaplayer"/><g class="sunburstlayer"/><g class="glimages"/><defs id="topdefs-7fe632"><g class="clips"/></defs><g class="layer-above"><g class="imagelayer"/><g class="shapelayer"/></g><g class="infolayer"><g class="g-gtitle"><text class="gtitle" x="512" y="50" text-anchor="middle" dy="0em" style="font-family: 'Open Sans', verdana, arial, sans-serif; font-size: 17px; fill: rgb(68, 68, 68); opacity: 1; font-weight: normal; white-space: pre;">Jetpack Compose dynamics. Samsung SM-G991B</text></g><g class="g-xtitle"><text class="xtitle" x="512" y="484" text-anchor="middle" style="font-family: 'Open Sans', verdana, arial, sans-serif; font-size: 14px; fill: rgb(68, 68, 68); opacity: 1; font-weight: normal; white-space: pre;">Compose version</text></g><g class="g-ytitle"><text class="ytitle" transform="rotate(-90,42,266)" x="42" y="266" text-anchor="middle" style="font-family: 'Open Sans', verdana, arial, sans-serif; font-size: 14px; fill: rgb(68, 68, 68); opacity: 1; font-weight: normal; white-space: pre;">Performance index</text></g></g></svg>