<svg class="main-svg" xmlns="http://www.w3.org/2000/svg" xmlns:xlink="http://www.w3.org/1999/xlink" width="1024" height="512" style="" viewBox="0 0 1024 512"><rect x="0" y="0" width="1024" height="512" style="fill: rgb(255, 255, 255); fill-opacity: 1;"/><defs id="defs-bed9b7"><g class="clips"><clipPath id="clipbed9b7xyplot" class="plotclip"><rect width="864" height="332"/></clipPath><clipPath class="axesclip" id="clipbed9b7x"><rect x="80" y="0" width="864" height="512"/></clipPath><clipPath class="axesclip" id="clipbed9b7y"><rect x="0" y="100" width="1024" height="332"/></clipPath><clipPath class="axesclip" id="clipbed9b7xy"><rect x="80" y="100" width="864" height="332"/></clipPath></g><g class="gradients"/></defs><g class="bglayer"/><g class="layer-below"><g class="imagelayer"/><g class="shapelayer"/></g><g class="cartesianlayer"><g class="subplot xy"><g class="layer-subplot"><g class="shapelayer"/><g class="imagelayer"/></g><g class="gridlayer"><g class="x"/><g class="y"/></g><g class="zerolinelayer"><path class="yzl zl crisp" transform="translate(0,432)" d="M80,0h864" style="stroke: rgb(68, 68, 68); stroke-opacity: 1; stroke-width: 1px;"/></g><path class="xlines-below"/><path class="ylines-below"/><g class="overlines-below"/><g class="xaxislayer-below"/><g class="yaxislayer-below"/><g class="overaxes-below"/><g class="plot" transform="translate(80,100)" clip-path="url('#clipbed9b7xyplot')"><g class="scatterlayer mlayer"><g class="trace scatter traced507bb" style="stroke-miterlimit: 2;"><g class="fills"><g><path class="js-fill" d="M814.55,332L49.45,332L49.45,0Q219.47,0 304.48,0C389.49,0 474.51,0 559.52,0Q644.53,0 814.55,0" style="fill: rgb(123, 200, 246); fill-opacity: 1; stroke-width: 0;"/></g></g><g class="errorbars"/><g class="lines"/><g class="points"/><g class="text"/></g><g class="trace scatter trace6dcf0c" style="stroke-miterlimit: 2;"><g class="fills"><g><path class="js-fill" d="M814.55,332L49.45,332L49.45,205.29Q219.46,211.73 304.48,212.86C389.48,213.99 474.54,214.68 559.52,212.1Q644.57,209.52 814.55,197.35" style="fill: rgb(12, 181, 119); fill-opacity: 1; stroke-width: 0;"/></g></g><g class="errorbars"/><g class="lines"><path class="js-line" d="M49.45,205.29Q219.46,211.73 304.48,212.86C389.48,213.99 474.54,214.68 559.52,212.1Q644.57,209.52 814.55,197.35" style="vector-effect: non-scaling-stroke; fill: none; stroke: rgb(255, 255, 255); stroke-opacity: 1; stroke-width: 3px; opacity: 1;"/></g><g class="points"/><g class="text"/></g><g class="trace scatter trace2e91fb" style="stroke-miterlimit: 2; opacity: 1;"><g class="fills"/><g class="errorbars"/><g class="lines"><path class="js-line" d="M49.45,205.29L49.45,193.67" style="vector-effect: non-scaling-stroke; fill: none; stroke: rgb(54, 55, 55); stroke-opacity: 1; stroke-width: 0.75px; opacity: 1; stroke-dasharray: 3px, 3px;"/></g><g class="points"/><g class="text"/></g><g class="trace scatter trace05197d" style="stroke-miterlimit: 2; opacity: 1;"><g class="fills"/><g class="errorbars"/><g class="lines"><path class="js-line" d="M304.48,212.86L304.48,193.67" style="vector-effect: non-scaling-stroke; fill: none; stroke: rgb(54, 55, 55); stroke-opacity: 1; stroke-width: 0.75px; opacity: 1; stroke-dasharray: 3px, 3px;"/></g><g class="points"/><g class="text"/></g><g class="trace scatter trace08d1f3" style="stroke-miterlimit: 2; opacity: 1;"><g class="fills"/><g class="errorbars"/><g class="lines"><path class="js-line" d="M559.52,212.1L559.52,193.67" style="vector-effect: non-scaling-stroke; fill: none; stroke: rgb(54, 55, 55); stroke-opacity: 1; stroke-width: 0.75px; opacity: 1; stroke-dasharray: 3px, 3px;"/></g><g class="points"/><g class="text"/></g><g class="trace scatter trace4cc8c1" style="stroke-miterlimit: 2; opacity: 1;"><g class="fills"/><g class="errorbars"/><g class="lines"><path class="js-line" d="M814.55,197.35L814.55,193.67" style="vector-effect: non-scaling-stroke; fill: none; stroke: rgb(54, 55, 55); stroke-opacity: 1; stroke-width: 0.75px; opacity: 1; stroke-dasharray: 3px, 3px;"/></g><g class="points"/><g class="text"/></g><g class="trace scatter trace0089d0" style="stroke-miterlimit: 2; opacity: 1;"><g class="fills"/><g class="errorbars"/><g class="lines"/><g class="points"><path class="point" transform="translate(49.45,205.29)" d="M5,0A5,5 0 1,1 0,-5A5,5 0 0,1 5,0Z" style="opacity: 1; stroke-width: 0px; fill: rgb(255, 255, 255); fill-opacity: 1;"/><path class="point" transform="translate(304.48,212.86)" d="M5,0A5,5 0 1,1 0,-5A5,5 0 0,1 5,0Z" style="opacity: 1; stroke-width: 0px; fill: rgb(255, 255, 255); fill-opacity: 1;"/><path class="point" transform="translate(559.52,212.1)" d="M5,0A5,5 0 1,1 0,-5A5,5 0 0,1 5,0Z" style="opacity: 1; stroke-width: 0px; fill: rgb(255, 255, 255); fill-opacity: 1;"/><path class="point" transform="translate(814.55,197.35)" d="M5,0A5,5 0 1,1 0,-5A5,5 0 0,1 5,0Z" style="opacity: 1; stroke-width: 0px; fill: rgb(255, 255, 255); fill-opacity: 1;"/></g><g class="text"/></g><g class="trace scatter tracec9e20a" style="stroke-miterlimit: 2; opacity: 1;"><g class="fills"/><g class="errorbars"/><g class="lines"><path class="js-line" d="M49.45,193.67Q219.47,193.67 304.48,193.67C389.49,193.67 474.51,193.67 559.52,193.67Q644.53,193.67 814.55,193.67" style="vector-effect: non-scaling-stroke; fill: none; stroke: rgb(7, 13, 13); stroke-opacity: 1; stroke-width: 0.95px; opacity: 1; stroke-dasharray: 3px, 3px;"/></g><g class="points"/><g class="text"><g class="textpoint" transform="translate(0,-3)"><text x="49.45" y="193.67" text-anchor="start" style="font-family: 'Open Sans', verdana, arial, sans-serif; font-size: 12px; fill: rgb(68, 68, 68); fill-opacity: 1; white-space: pre;">Good</text></g><g class="textpoint"/><g class="textpoint"/><g class="textpoint"/></g></g><g class="trace scatter trace73a0d2" style="stroke-miterlimit: 2; opacity: 1;"><g class="fills"/><g class="errorbars"/><g class="lines"><path class="js-line" d="M49.45,55.33Q219.47,55.33 304.48,55.33C389.49,55.33 474.51,55.33 559.52,55.33Q644.53,55.33 814.55,55.33" style="vector-effect: non-scaling-stroke; fill: none; stroke: rgb(7, 13, 13); stroke-opacity: 1; stroke-width: 0.95px; opacity: 1; stroke-dasharray: 3px, 3px;"/></g><g class="points"/><g class="text"><g class="textpoint" transform="translate(0,-3)"><text x="49.45" y="55.33" text-anchor="start" style="font-family: 'Open Sans', verdana, arial, sans-serif; font-size: 12px; fill: rgb(68, 68, 68); fill-opacity: 1; white-space: pre;">Excellent</text></g><g class="textpoint"/><g class="textpoint"/><g class="textpoint"/></g></g></g></g><g class="overplot"/><path class="xlines-above crisp" d="M0,0" style="fill: none;"/><path class="ylines-above crisp" d="M79.5,100V432" style="fill: none; stroke-width: 1px; stroke: rgb(0, 0, 0); stroke-opacity: 1;"/><g class="overlines-above"/><g class="xaxislayer-above"><g class="xtick"><text text-anchor="middle" x="0" y="445" transform="translate(129.45,0)" style="font-family: 'Open Sans', verdana, arial, sans-serif; font-size: 12px; fill: rgb(68, 68, 68); fill-opacity: 1; white-space: pre;">1.0.3</text></g><g class="xtick"><text text-anchor="middle" x="0" y="445" transform="translate(384.48,0)" style="font-family: 'Open Sans', verdana, arial, sans-serif; font-size: 12px; fill: rgb(68, 68, 68); fill-opacity: 1; white-space: pre;">1.0.4</text></g><g class="xtick"><text text-anchor="middle" x="0" y="445" transform="translate(639.52,0)" style="font-family: 'Open Sans', verdana, arial, sans-serif; font-size: 12px; fill: rgb(68, 68, 68); fill-opacity: 1; white-space: pre;">1.0.5</text></g><g class="xtick"><text text-anchor="middle" x="0" y="445" transform="translate(894.55,0)" style="font-family: 'Open Sans', verdana, arial, sans-serif; font-size: 12px; fill: rgb(68, 68, 68); fill-opacity: 1; white-space: pre;">1.1.0</text></g></g><g class="yaxislayer-above"><g class="ytick"><text text-anchor="end" x="76.6" y="4.199999999999999" transform="translate(0,432)" style="font-family: 'Open Sans', verdana, arial, sans-serif; font-size: 12px; fill: rgb(68, 68, 68); fill-opacity: 1; white-space: pre;">Low</text></g><g class="ytick"><text text-anchor="end" x="76.6" y="4.199999999999999" transform="translate(0,293.66999999999996)" style="font-family: 'Open Sans', verdana, arial, sans-serif; font-size: 12px; fill: rgb(68, 68, 68); fill-opacity: 1; white-space: pre;"></text></g><g class="ytick"><text text-anchor="end" x="76.6" y="4.199999999999999" transform="translate(0,100)" style="font-family: 'Open Sans', verdana, arial, sans-serif; font-size: 12px; fill: rgb(68, 68, 68); fill-opacity: 1; white-space: pre;">High</text></g></g><g class="overaxes-above"/></g></g><g class="polarlayer"/><g class="ternarylayer"/><g class="geolayer"/><g class="funnelarealayer"/><g class="pielayer"/><g class="treemaplayer"/><g class="sunburstlayer"/><g class="glimages"/><defs id="topdefs-bed9b7"><g class="clips"/></defs><g class="layer-above"><g class="imagelayer"/><g class="shapelayer"/></g><g class="infolayer"><g class="g-gtitle"><text class="gtitle" x="512" y="50" text-anchor="middle" dy="0em" style="font-family: 'Open Sans', verdana, arial, sans-serif; font-size: 17px; fill: rgb(68, 68, 68); opacity: 1; font-weight: normal; white-space: pre;">Jetpack Compose dynamics. Samsung SM-G973F</text></g><g class="g-xtitle"><text class="xtitle" x="512" y="484" text-anchor="middle" style="font-family: 'Open Sans', verdana, arial, sans-serif; font-size: 14px; fill: rgb(68, 68, 68); opacity: 1; font-weight: normal; white-space: pre;">Compose version</text></g><g class="g-ytitle"><text class="ytitle" transform="rotate(-90,42,266)" x="42" y="266" text-anchor="middle" style="font-family: 'Open Sans', verdana, arial, sans-serif; font-size: 14px; fill: rgb(68, 68, 68); opacity: 1; font-weight: normal; white-space: pre;">Performance index</text></g></g></svg>