<svg class="main-svg" xmlns="http://www.w3.org/2000/svg" xmlns:xlink="http://www.w3.org/1999/xlink" width="1024" height="512" style="" viewBox="0 0 1024 512"><rect x="0" y="0" width="1024" height="512" style="fill: rgb(255, 255, 255); fill-opacity: 1;"/><defs id="defs-2e3038"><g class="clips"><clipPath id="clip2e3038xyplot" class="plotclip"><rect width="864" height="332"/></clipPath><clipPath class="axesclip" id="clip2e3038x"><rect x="80" y="0" width="864" height="512"/></clipPath><clipPath class="axesclip" id="clip2e3038y"><rect x="0" y="100" width="1024" height="332"/></clipPath><clipPath class="axesclip" id="clip2e3038xy"><rect x="80" y="100" width="864" height="332"/></clipPath></g><g class="gradients"/></defs><g class="bglayer"/><g class="layer-below"><g class="imagelayer"/><g class="shapelayer"/></g><g class="cartesianlayer"><g class="subplot xy"><g class="layer-subplot"><g class="shapelayer"/><g class="imagelayer"/></g><g class="gridlayer"><g class="x"/><g class="y"/></g><g class="zerolinelayer"><path class="yzl zl crisp" transform="translate(0,432)" d="M80,0h864" style="stroke: rgb(68, 68, 68); stroke-opacity: 1; stroke-width: 1px;"/></g><path class="xlines-below"/><path class="ylines-below"/><g class="overlines-below"/><g class="xaxislayer-below"/><g class="yaxislayer-below"/><g class="overaxes-below"/><g class="plot" transform="translate(80,100)" clip-path="url('#clip2e3038xyplot')"><g class="scatterlayer mlayer"><g class="trace scatter tracec8af05" style="stroke-miterlimit: 2;"><g class="fills"><g><path class="js-fill" d="M814.55,332L49.45,332L49.45,0Q151.46,0 202.47,0C253.48,0 304.48,0 355.49,0C406.5,0 457.5,0 508.51,0C559.52,0 610.52,0 661.53,0Q712.54,0 814.55,0" style="fill: rgb(123, 200, 246); fill-opacity: 1; stroke-width: 0;"/></g></g><g class="errorbars"/><g class="lines"/><g class="points"/><g class="text"/></g><g class="trace scatter trace61c455" style="stroke-miterlimit: 2;"><g class="fills"><g><path class="js-fill" d="M814.55,332L49.45,332L49.45,16.49Q151.21,43.89 202.47,47.99C253.23,52.05 304.72,37.41 355.49,41.36C406.74,45.34 457.3,69.3 508.51,72.13C559.32,74.93 610.48,59.91 661.53,58.6Q712.5,57.29 814.55,64.23" style="fill: rgb(12, 181, 119); fill-opacity: 1; stroke-width: 0;"/></g></g><g class="errorbars"/><g class="lines"><path class="js-line" d="M49.45,16.49Q151.21,43.89 202.47,47.99C253.23,52.05 304.72,37.41 355.49,41.36C406.74,45.34 457.3,69.3 508.51,72.13C559.32,74.93 610.48,59.91 661.53,58.6Q712.5,57.29 814.55,64.23" style="vector-effect: non-scaling-stroke; fill: none; stroke: rgb(255, 255, 255); stroke-opacity: 1; stroke-width: 3px; opacity: 1;"/></g><g class="points"/><g class="text"/></g><g class="trace scatter trace4b5cae" style="stroke-miterlimit: 2; opacity: 1;"><g class="fills"/><g class="errorbars"/><g class="lines"><path class="js-line" d="M49.45,16.49L49.45,193.67" style="vector-effect: non-scaling-stroke; fill: none; stroke: rgb(54, 55, 55); stroke-opacity: 1; stroke-width: 0.75px; opacity: 1; stroke-dasharray: 3px, 3px;"/></g><g class="points"/><g class="text"/></g><g class="trace scatter trace713706" style="stroke-miterlimit: 2; opacity: 1;"><g class="fills"/><g class="errorbars"/><g class="lines"><path class="js-line" d="M49.45,16.49L49.45,55.33" style="vector-effect: non-scaling-stroke; fill: none; stroke: rgb(54, 55, 55); stroke-opacity: 1; stroke-width: 0.75px; opacity: 1; stroke-dasharray: 3px, 3px;"/></g><g class="points"/><g class="text"/></g><g class="trace scatter tracea1acef" style="stroke-miterlimit: 2; opacity: 1;"><g class="fills"/><g class="errorbars"/><g class="lines"><path class="js-line" d="M202.47,47.99L202.47,193.67" style="vector-effect: non-scaling-stroke; fill: none; stroke: rgb(54, 55, 55); stroke-opacity: 1; stroke-width: 0.75px; opacity: 1; stroke-dasharray: 3px, 3px;"/></g><g class="points"/><g class="text"/></g><g class="trace scatter traced1b661" style="stroke-miterlimit: 2; opacity: 1;"><g class="fills"/><g class="errorbars"/><g class="lines"><path class="js-line" d="M202.47,47.99L202.47,55.33" style="vector-effect: non-scaling-stroke; fill: none; stroke: rgb(54, 55, 55); stroke-opacity: 1; stroke-width: 0.75px; opacity: 1; stroke-dasharray: 3px, 3px;"/></g><g class="points"/><g class="text"/></g><g class="trace scatter trace76725b" style="stroke-miterlimit: 2; opacity: 1;"><g class="fills"/><g class="errorbars"/><g class="lines"><path class="js-line" d="M355.49,41.36L355.49,193.67" style="vector-effect: non-scaling-stroke; fill: none; stroke: rgb(54, 55, 55); stroke-opacity: 1; stroke-width: 0.75px; opacity: 1; stroke-dasharray: 3px, 3px;"/></g><g class="points"/><g class="text"/></g><g class="trace scatter trace593f4f" style="stroke-miterlimit: 2; opacity: 1;"><g class="fills"/><g class="errorbars"/><g class="lines"><path class="js-line" d="M355.49,41.36L355.49,55.33" style="vector-effect: non-scaling-stroke; fill: none; stroke: rgb(54, 55, 55); stroke-opacity: 1; stroke-width: 0.75px; opacity: 1; stroke-dasharray: 3px, 3px;"/></g><g class="points"/><g class="text"/></g><g class="trace scatter trace0c17ae" style="stroke-miterlimit: 2; opacity: 1;"><g class="fills"/><g class="errorbars"/><g class="lines"><path class="js-line" d="M508.51,72.13L508.51,193.67" style="vector-effect: non-scaling-stroke; fill: none; stroke: rgb(54, 55, 55); stroke-opacity: 1; stroke-width: 0.75px; opacity: 1; stroke-dasharray: 3px, 3px;"/></g><g class="points"/><g class="text"/></g><g class="trace scatter trace90e9d8" style="stroke-miterlimit: 2; opacity: 1;"><g class="fills"/><g class="errorbars"/><g class="lines"><path class="js-line" d="M508.51,72.13L508.51,55.33" style="vector-effect: non-scaling-stroke; fill: none; stroke: rgb(54, 55, 55); stroke-opacity: 1; stroke-width: 0.75px; opacity: 1; stroke-dasharray: 3px, 3px;"/></g><g class="points"/><g class="text"/></g><g class="trace scatter trace70a7d5" style="stroke-miterlimit: 2; opacity: 1;"><g class="fills"/><g class="errorbars"/><g class="lines"><path class="js-line" d="M661.53,58.6L661.53,193.67" style="vector-effect: non-scaling-stroke; fill: none; stroke: rgb(54, 55, 55); stroke-opacity: 1; stroke-width: 0.75px; opacity: 1; stroke-dasharray: 3px, 3px;"/></g><g class="points"/><g class="text"/></g><g class="trace scatter tracecd29ef" style="stroke-miterlimit: 2; opacity: 1;"><g class="fills"/><g class="errorbars"/><g class="lines"><path class="js-line" d="M661.53,58.6L661.53,55.33" style="vector-effect: non-scaling-stroke; fill: none; stroke: rgb(54, 55, 55); stroke-opacity: 1; stroke-width: 0.75px; opacity: 1; stroke-dasharray: 3px, 3px;"/></g><g class="points"/><g class="text"/></g><g class="trace scatter traceefed6d" style="stroke-miterlimit: 2; opacity: 1;"><g class="fills"/><g class="errorbars"/><g class="lines"><path class="js-line" d="M814.55,64.23L814.55,193.67" style="vector-effect: non-scaling-stroke; fill: none; stroke: rgb(54, 55, 55); stroke-opacity: 1; stroke-width: 0.75px; opacity: 1; stroke-dasharray: 3px, 3px;"/></g><g class="points"/><g class="text"/></g><g class="trace scatter trace790cf1" style="stroke-miterlimit: 2; opacity: 1;"><g class="fills"/><g class="errorbars"/><g class="lines"><path class="js-line" d="M814.55,64.23L814.55,55.33" style="vector-effect: non-scaling-stroke; fill: none; stroke: rgb(54, 55, 55); stroke-opacity: 1; stroke-width: 0.75px; opacity: 1; stroke-dasharray: 3px, 3px;"/></g><g class="points"/><g class="text"/></g><g class="trace scatter trace1432a9" style="stroke-miterlimit: 2; opacity: 1;"><g class="fills"/><g class="errorbars"/><g class="lines"/><g class="points"><path class="point" transform="translate(49.45,16.49)" d="M5,0A5,5 0 1,1 0,-5A5,5 0 0,1 5,0Z" style="opacity: 1; stroke-width: 0px; fill: rgb(255, 255, 255); fill-opacity: 1;"/><path class="point" transform="translate(202.47,47.99)" d="M5,0A5,5 0 1,1 0,-5A5,5 0 0,1 5,0Z" style="opacity: 1; stroke-width: 0px; fill: rgb(255, 255, 255); fill-opacity: 1;"/><path class="point" transform="translate(355.49,41.36)" d="M5,0A5,5 0 1,1 0,-5A5,5 0 0,1 5,0Z" style="opacity: 1; stroke-width: 0px; fill: rgb(255, 255, 255); fill-opacity: 1;"/><path class="point" transform="translate(508.51,72.13)" d="M5,0A5,5 0 1,1 0,-5A5,5 0 0,1 5,0Z" style="opacity: 1; stroke-width: 0px; fill: rgb(255, 255, 255); fill-opacity: 1;"/><path class="point" transform="translate(661.53,58.6)" d="M5,0A5,5 0 1,1 0,-5A5,5 0 0,1 5,0Z" style="opacity: 1; stroke-width: 0px; fill: rgb(255, 255, 255); fill-opacity: 1;"/><path class="point" transform="translate(814.55,64.23)" d="M5,0A5,5 0 1,1 0,-5A5,5 0 0,1 5,0Z" style="opacity: 1; stroke-width: 0px; fill: rgb(255, 255, 255); fill-opacity: 1;"/></g><g class="text"/></g><g class="trace scatter trace0420a3" style="stroke-miterlimit: 2; opacity: 1;"><g class="fills"/><g class="errorbars"/><g class="lines"><path class="js-line" d="M49.45,193.67Q151.46,193.67 202.47,193.67C253.48,193.67 304.48,193.67 355.49,193.67C406.5,193.67 457.5,193.67 508.51,193.67C559.52,193.67 610.52,193.67 661.53,193.67Q712.54,193.67 814.55,193.67" style="vector-effect: non-scaling-stroke; fill: none; stroke: rgb(7, 13, 13); stroke-opacity: 1; stroke-width: 0.95px; opacity: 1; stroke-dasharray: 3px, 3px;"/></g><g class="points"/><g class="text"><g class="textpoint" transform="translate(0,-3)"><text x="49.45" y="193.67" text-anchor="start" style="font-family: 'Open Sans', verdana, arial, sans-serif; font-size: 12px; fill: rgb(68, 68, 68); fill-opacity: 1; white-space: pre;">Good</text></g><g class="textpoint"/><g class="textpoint"/><g class="textpoint"/><g class="textpoint"/><g class="textpoint"/></g></g><g class="trace scatter trace331157" style="stroke-miterlimit: 2; opacity: 1;"><g class="fills"/><g class="errorbars"/><g class="lines"><path class="js-line" d="M49.45,55.33Q151.46,55.33 202.47,55.33C253.48,55.33 304.48,55.33 355.49,55.33C406.5,55.33 457.5,55.33 508.51,55.33C559.52,55.33 610.52,55.33 661.53,55.33Q712.54,55.33 814.55,55.33" style="vector-effect: non-scaling-stroke; fill: none; stroke: rgb(7, 13, 13); stroke-opacity: 1; stroke-width: 0.95px; opacity: 1; stroke-dasharray: 3px, 3px;"/></g><g class="points"/><g class="text"><g class="textpoint" transform="translate(0,-3)"><text x="49.45" y="55.33" text-anchor="start" style="font-family: 'Open Sans', verdana, arial, sans-serif; font-size: 12px; fill: rgb(68, 68, 68); fill-opacity: 1; white-space: pre;">Excellent</text></g><g class="textpoint"/><g class="textpoint"/><g class="textpoint"/><g class="textpoint"/><g class="textpoint"/></g></g></g></g><g class="overplot"/><path class="xlines-above crisp" d="M0,0" style="fill: none;"/><path class="ylines-above crisp" d="M79.5,100V432" style="fill: none; stroke-width: 1px; stroke: rgb(0, 0, 0); stroke-opacity: 1;"/><g class="overlines-above"/><g class="xaxislayer-above"><g class="xtick"><text text-anchor="middle" x="0" y="445" transform="translate(129.45,0)" style="font-family: 'Open Sans', verdana, arial, sans-serif; font-size: 12px; fill: rgb(68, 68, 68); fill-opacity: 1; white-space: pre;">1.0.3</text></g><g class="xtick"><text text-anchor="middle" x="0" y="445" transform="translate(282.47,0)" style="font-family: 'Open Sans', verdana, arial, sans-serif; font-size: 12px; fill: rgb(68, 68, 68); fill-opacity: 1; white-space: pre;">1.0.4</text></g><g class="xtick"><text text-anchor="middle" x="0" y="445" transform="translate(435.49,0)" style="font-family: 'Open Sans', verdana, arial, sans-serif; font-size: 12px; fill: rgb(68, 68, 68); fill-opacity: 1; white-space: pre;">1.0.5</text></g><g class="xtick"><text text-anchor="middle" x="0" y="445" transform="translate(588.51,0)" style="font-family: 'Open Sans', verdana, arial, sans-serif; font-size: 12px; fill: rgb(68, 68, 68); fill-opacity: 1; white-space: pre;">1.1.0-beta01</text></g><g class="xtick"><text text-anchor="middle" x="0" y="445" transform="translate(741.53,0)" style="font-family: 'Open Sans', verdana, arial, sans-serif; font-size: 12px; fill: rgb(68, 68, 68); fill-opacity: 1; white-space: pre;">1.1.0-beta02</text></g><g class="xtick"><text text-anchor="middle" x="0" y="445" transform="translate(894.55,0)" style="font-family: 'Open Sans', verdana, arial, sans-serif; font-size: 12px; fill: rgb(68, 68, 68); fill-opacity: 1; white-space: pre;">1.1.0-beta03</text></g></g><g class="yaxislayer-above"><g class="ytick"><text text-anchor="end" x="76.6" y="4.199999999999999" transform="translate(0,432)" style="font-family: 'Open Sans', verdana, arial, sans-serif; font-size: 12px; fill: rgb(68, 68, 68); fill-opacity: 1; white-space: pre;">Low</text></g><g class="ytick"><text text-anchor="end" x="76.6" y="4.199999999999999" transform="translate(0,293.66999999999996)" style="font-family: 'Open Sans', verdana, arial, sans-serif; font-size: 12px; fill: rgb(68, 68, 68); fill-opacity: 1; white-space: pre;"></text></g><g class="ytick"><text text-anchor="end" x="76.6" y="4.199999999999999" transform="translate(0,100)" style="font-family: 'Open Sans', verdana, arial, sans-serif; font-size: 12px; fill: rgb(68, 68, 68); fill-opacity: 1; white-space: pre;">High</text></g></g><g class="overaxes-above"/></g></g><g class="polarlayer"/><g class="ternarylayer"/><g class="geolayer"/><g class="funnelarealayer"/><g class="pielayer"/><g class="treemaplayer"/><g class="sunburstlayer"/><g class="glimages"/><defs id="topdefs-2e3038"><g class="clips"/></defs><g class="layer-above"><g class="imagelayer"/><g class="shapelayer"/></g><g class="infolayer"><g class="g-gtitle"><text class="gtitle" x="512" y="50" text-anchor="middle" dy="0em" style="font-family: 'Open Sans', verdana, arial, sans-serif; font-size: 17px; fill: rgb(68, 68, 68); opacity: 1; font-weight: normal; white-space: pre;">Jetpack Compose dynamics. OnePlus BE2029</text></g><g class="g-xtitle"><text class="xtitle" x="512" y="484" text-anchor="middle" style="font-family: 'Open Sans', verdana, arial, sans-serif; font-size: 14px; fill: rgb(68, 68, 68); opacity: 1; font-weight: normal; white-space: pre;">Compose version</text></g><g class="g-ytitle"><text class="ytitle" transform="rotate(-90,42,266)" x="42" y="266" text-anchor="middle" style="font-family: 'Open Sans', verdana, arial, sans-serif; font-size: 14px; fill: rgb(68, 68, 68); opacity: 1; font-weight: normal; white-space: pre;">Performance index</text></g></g></svg>