<svg class="main-svg" xmlns="http://www.w3.org/2000/svg" xmlns:xlink="http://www.w3.org/1999/xlink" width="1024" height="512" style="" viewBox="0 0 1024 512"><rect x="0" y="0" width="1024" height="512" style="fill: rgb(255, 255, 255); fill-opacity: 1;"/><defs id="defs-608e80"><g class="clips"><clipPath id="clip608e80xyplot" class="plotclip"><rect width="864" height="332"/></clipPath><clipPath class="axesclip" id="clip608e80x"><rect x="80" y="0" width="864" height="512"/></clipPath><clipPath class="axesclip" id="clip608e80y"><rect x="0" y="100" width="1024" height="332"/></clipPath><clipPath class="axesclip" id="clip608e80xy"><rect x="80" y="100" width="864" height="332"/></clipPath></g><g class="gradients"/></defs><g class="bglayer"/><g class="layer-below"><g class="imagelayer"/><g class="shapelayer"/></g><g class="cartesianlayer"><g class="subplot xy"><g class="layer-subplot"><g class="shapelayer"/><g class="imagelayer"/></g><g class="gridlayer"><g class="x"/><g class="y"/></g><g class="zerolinelayer"><path class="yzl zl crisp" transform="translate(0,432)" d="M80,0h864" style="stroke: rgb(68, 68, 68); stroke-opacity: 1; stroke-width: 1px;"/></g><path class="xlines-below"/><path class="ylines-below"/><g class="overlines-below"/><g class="xaxislayer-below"/><g class="yaxislayer-below"/><g class="overaxes-below"/><g class="plot" transform="translate(80,100)" clip-path="url('#clip608e80xyplot')"><g class="scatterlayer mlayer"><g class="trace scatter tracea9934e" style="stroke-miterlimit: 2;"><g class="fills"><g><path class="js-fill" d="M814.55,332L49.45,332L49.45,0Q134.46,0 176.97,0C219.47,0 261.98,0 304.48,0C346.99,0 389.49,0 432,0C474.51,0 517.01,0 559.52,0C602.02,0 644.53,0 687.03,0Q729.54,0 814.55,0" style="fill: rgb(123, 200, 246); fill-opacity: 1; stroke-width: 0;"/></g></g><g class="errorbars"/><g class="lines"/><g class="points"/><g class="text"/></g><g class="trace scatter trace9bf685" style="stroke-miterlimit: 2;"><g class="fills"><g><path class="js-fill" d="M814.55,332L49.45,332L49.45,210.92Q134.46,214.09 176.97,214.72C219.47,215.35 261.98,215.14 304.48,214.68C346.99,214.22 389.51,211.03 432,211.93C474.53,212.84 517,219.77 559.52,220.12C602.01,220.47 644.52,214.59 687.03,214.01Q729.53,213.43 814.55,216.61" style="fill: rgb(12, 181, 119); fill-opacity: 1; stroke-width: 0;"/></g></g><g class="errorbars"/><g class="lines"><path class="js-line" d="M49.45,210.92Q134.46,214.09 176.97,214.72C219.47,215.35 261.98,215.14 304.48,214.68C346.99,214.22 389.51,211.03 432,211.93C474.53,212.84 517,219.77 559.52,220.12C602.01,220.47 644.52,214.59 687.03,214.01Q729.53,213.43 814.55,216.61" style="vector-effect: non-scaling-stroke; fill: none; stroke: rgb(255, 255, 255); stroke-opacity: 1; stroke-width: 3px; opacity: 1;"/></g><g class="points"/><g class="text"/></g><g class="trace scatter trace78ead0" style="stroke-miterlimit: 2; opacity: 1;"><g class="fills"/><g class="errorbars"/><g class="lines"><path class="js-line" d="M49.45,210.92L49.45,193.67" style="vector-effect: non-scaling-stroke; fill: none; stroke: rgb(54, 55, 55); stroke-opacity: 1; stroke-width: 0.75px; opacity: 1; stroke-dasharray: 3px, 3px;"/></g><g class="points"/><g class="text"/></g><g class="trace scatter traceb1f46b" style="stroke-miterlimit: 2; opacity: 1;"><g class="fills"/><g class="errorbars"/><g class="lines"><path class="js-line" d="M176.97,214.72L176.97,193.67" style="vector-effect: non-scaling-stroke; fill: none; stroke: rgb(54, 55, 55); stroke-opacity: 1; stroke-width: 0.75px; opacity: 1; stroke-dasharray: 3px, 3px;"/></g><g class="points"/><g class="text"/></g><g class="trace scatter tracefbb69a" style="stroke-miterlimit: 2; opacity: 1;"><g class="fills"/><g class="errorbars"/><g class="lines"><path class="js-line" d="M304.48,214.68L304.48,193.67" style="vector-effect: non-scaling-stroke; fill: none; stroke: rgb(54, 55, 55); stroke-opacity: 1; stroke-width: 0.75px; opacity: 1; stroke-dasharray: 3px, 3px;"/></g><g class="points"/><g class="text"/></g><g class="trace scatter tracef574ff" style="stroke-miterlimit: 2; opacity: 1;"><g class="fills"/><g class="errorbars"/><g class="lines"><path class="js-line" d="M432,211.93L432,193.67" style="vector-effect: non-scaling-stroke; fill: none; stroke: rgb(54, 55, 55); stroke-opacity: 1; stroke-width: 0.75px; opacity: 1; stroke-dasharray: 3px, 3px;"/></g><g class="points"/><g class="text"/></g><g class="trace scatter traceb0d945" style="stroke-miterlimit: 2; opacity: 1;"><g class="fills"/><g class="errorbars"/><g class="lines"><path class="js-line" d="M559.52,220.12L559.52,193.67" style="vector-effect: non-scaling-stroke; fill: none; stroke: rgb(54, 55, 55); stroke-opacity: 1; stroke-width: 0.75px; opacity: 1; stroke-dasharray: 3px, 3px;"/></g><g class="points"/><g class="text"/></g><g class="trace scatter trace88cb82" style="stroke-miterlimit: 2; opacity: 1;"><g class="fills"/><g class="errorbars"/><g class="lines"><path class="js-line" d="M687.03,214.01L687.03,193.67" style="vector-effect: non-scaling-stroke; fill: none; stroke: rgb(54, 55, 55); stroke-opacity: 1; stroke-width: 0.75px; opacity: 1; stroke-dasharray: 3px, 3px;"/></g><g class="points"/><g class="text"/></g><g class="trace scatter tracedf1d7b" style="stroke-miterlimit: 2; opacity: 1;"><g class="fills"/><g class="errorbars"/><g class="lines"><path class="js-line" d="M814.55,216.61L814.55,193.67" style="vector-effect: non-scaling-stroke; fill: none; stroke: rgb(54, 55, 55); stroke-opacity: 1; stroke-width: 0.75px; opacity: 1; stroke-dasharray: 3px, 3px;"/></g><g class="points"/><g class="text"/></g><g class="trace scatter tracee643b6" style="stroke-miterlimit: 2; opacity: 1;"><g class="fills"/><g class="errorbars"/><g class="lines"/><g class="points"><path class="point" transform="translate(49.45,210.92)" d="M5,0A5,5 0 1,1 0,-5A5,5 0 0,1 5,0Z" style="opacity: 1; stroke-width: 0px; fill: rgb(255, 255, 255); fill-opacity: 1;"/><path class="point" transform="translate(176.97,214.72)" d="M5,0A5,5 0 1,1 0,-5A5,5 0 0,1 5,0Z" style="opacity: 1; stroke-width: 0px; fill: rgb(255, 255, 255); fill-opacity: 1;"/><path class="point" transform="translate(304.48,214.68)" d="M5,0A5,5 0 1,1 0,-5A5,5 0 0,1 5,0Z" style="opacity: 1; stroke-width: 0px; fill: rgb(255, 255, 255); fill-opacity: 1;"/><path class="point" transform="translate(432,211.93)" d="M5,0A5,5 0 1,1 0,-5A5,5 0 0,1 5,0Z" style="opacity: 1; stroke-width: 0px; fill: rgb(255, 255, 255); fill-opacity: 1;"/><path class="point" transform="translate(559.52,220.12)" d="M5,0A5,5 0 1,1 0,-5A5,5 0 0,1 5,0Z" style="opacity: 1; stroke-width: 0px; fill: rgb(255, 255, 255); fill-opacity: 1;"/><path class="point" transform="translate(687.03,214.01)" d="M5,0A5,5 0 1,1 0,-5A5,5 0 0,1 5,0Z" style="opacity: 1; stroke-width: 0px; fill: rgb(255, 255, 255); fill-opacity: 1;"/><path class="point" transform="translate(814.55,216.61)" d="M5,0A5,5 0 1,1 0,-5A5,5 0 0,1 5,0Z" style="opacity: 1; stroke-width: 0px; fill: rgb(255, 255, 255); fill-opacity: 1;"/></g><g class="text"/></g><g class="trace scatter tracea0e6e5" style="stroke-miterlimit: 2; opacity: 1;"><g class="fills"/><g class="errorbars"/><g class="lines"><path class="js-line" d="M49.45,193.67Q134.46,193.67 176.97,193.67C219.47,193.67 261.98,193.67 304.48,193.67C346.99,193.67 389.49,193.67 432,193.67C474.51,193.67 517.01,193.67 559.52,193.67C602.02,193.67 644.53,193.67 687.03,193.67Q729.54,193.67 814.55,193.67" style="vector-effect: non-scaling-stroke; fill: none; stroke: rgb(7, 13, 13); stroke-opacity: 1; stroke-width: 0.95px; opacity: 1; stroke-dasharray: 3px, 3px;"/></g><g class="points"/><g class="text"><g class="textpoint" transform="translate(0,-3)"><text x="49.45" y="193.67" text-anchor="start" style="font-family: 'Open Sans', verdana, arial, sans-serif; font-size: 12px; fill: rgb(68, 68, 68); fill-opacity: 1; white-space: pre;">Good</text></g><g class="textpoint"/><g class="textpoint"/><g class="textpoint"/><g class="textpoint"/><g class="textpoint"/><g class="textpoint"/></g></g><g class="trace scatter traced93362" style="stroke-miterlimit: 2; opacity: 1;"><g class="fills"/><g class="errorbars"/><g class="lines"><path class="js-line" d="M49.45,55.33Q134.46,55.33 176.97,55.33C219.47,55.33 261.98,55.33 304.48,55.33C346.99,55.33 389.49,55.33 432,55.33C474.51,55.33 517.01,55.33 559.52,55.33C602.02,55.33 644.53,55.33 687.03,55.33Q729.54,55.33 814.55,55.33" style="vector-effect: non-scaling-stroke; fill: none; stroke: rgb(7, 13, 13); stroke-opacity: 1; stroke-width: 0.95px; opacity: 1; stroke-dasharray: 3px, 3px;"/></g><g class="points"/><g class="text"><g class="textpoint" transform="translate(0,-3)"><text x="49.45" y="55.33" text-anchor="start" style="font-family: 'Open Sans', verdana, arial, sans-serif; font-size: 12px; fill: rgb(68, 68, 68); fill-opacity: 1; white-space: pre;">Excellent</text></g><g class="textpoint"/><g class="textpoint"/><g class="textpoint"/><g class="textpoint"/><g class="textpoint"/><g class="textpoint"/></g></g></g></g><g class="overplot"/><path class="xlines-above crisp" d="M0,0" style="fill: none;"/><path class="ylines-above crisp" d="M79.5,100V432" style="fill: none; stroke-width: 1px; stroke: rgb(0, 0, 0); stroke-opacity: 1;"/><g class="overlines-above"/><g class="xaxislayer-above"><g class="xtick"><text text-anchor="middle" x="0" y="445" transform="translate(129.45,0)" style="font-family: 'Open Sans', verdana, arial, sans-serif; font-size: 12px; fill: rgb(68, 68, 68); fill-opacity: 1; white-space: pre;">1.0.3</text></g><g class="xtick"><text text-anchor="middle" x="0" y="445" transform="translate(256.97,0)" style="font-family: 'Open Sans', verdana, arial, sans-serif; font-size: 12px; fill: rgb(68, 68, 68); fill-opacity: 1; white-space: pre;">1.0.4</text></g><g class="xtick"><text text-anchor="middle" x="0" y="445" transform="translate(384.48,0)" style="font-family: 'Open Sans', verdana, arial, sans-serif; font-size: 12px; fill: rgb(68, 68, 68); fill-opacity: 1; white-space: pre;">1.0.5</text></g><g class="xtick"><text text-anchor="middle" x="0" y="445" transform="translate(512,0)" style="font-family: 'Open Sans', verdana, arial, sans-serif; font-size: 12px; fill: rgb(68, 68, 68); fill-opacity: 1; white-space: pre;">1.1.0-beta01</text></g><g class="xtick"><text text-anchor="middle" x="0" y="445" transform="translate(639.52,0)" style="font-family: 'Open Sans', verdana, arial, sans-serif; font-size: 12px; fill: rgb(68, 68, 68); fill-opacity: 1; white-space: pre;">1.1.0-beta02</text></g><g class="xtick"><text text-anchor="middle" x="0" y="445" transform="translate(767.03,0)" style="font-family: 'Open Sans', verdana, arial, sans-serif; font-size: 12px; fill: rgb(68, 68, 68); fill-opacity: 1; white-space: pre;">1.1.0-beta03</text></g><g class="xtick"><text text-anchor="middle" x="0" y="445" transform="translate(894.55,0)" style="font-family: 'Open Sans', verdana, arial, sans-serif; font-size: 12px; fill: rgb(68, 68, 68); fill-opacity: 1; white-space: pre;">1.1.0-beta04</text></g></g><g class="yaxislayer-above"><g class="ytick"><text text-anchor="end" x="76.6" y="4.199999999999999" transform="translate(0,432)" style="font-family: 'Open Sans', verdana, arial, sans-serif; font-size: 12px; fill: rgb(68, 68, 68); fill-opacity: 1; white-space: pre;">Low</text></g><g class="ytick"><text text-anchor="end" x="76.6" y="4.199999999999999" transform="translate(0,293.66999999999996)" style="font-family: 'Open Sans', verdana, arial, sans-serif; font-size: 12px; fill: rgb(68, 68, 68); fill-opacity: 1; white-space: pre;"></text></g><g class="ytick"><text text-anchor="end" x="76.6" y="4.199999999999999" transform="translate(0,100)" style="font-family: 'Open Sans', verdana, arial, sans-serif; font-size: 12px; fill: rgb(68, 68, 68); fill-opacity: 1; white-space: pre;">High</text></g></g><g class="overaxes-above"/></g></g><g class="polarlayer"/><g class="ternarylayer"/><g class="geolayer"/><g class="funnelarealayer"/><g class="pielayer"/><g class="treemaplayer"/><g class="sunburstlayer"/><g class="glimages"/><defs id="topdefs-608e80"><g class="clips"/></defs><g class="layer-above"><g class="imagelayer"/><g class="shapelayer"/></g><g class="infolayer"><g class="g-gtitle"><text class="gtitle" x="512" y="50" text-anchor="middle" dy="0em" style="font-family: 'Open Sans', verdana, arial, sans-serif; font-size: 17px; fill: rgb(68, 68, 68); opacity: 1; font-weight: normal; white-space: pre;">Jetpack Compose dynamics. Xiaomi MI 6</text></g><g class="g-xtitle"><text class="xtitle" x="512" y="484" text-anchor="middle" style="font-family: 'Open Sans', verdana, arial, sans-serif; font-size: 14px; fill: rgb(68, 68, 68); opacity: 1; font-weight: normal; white-space: pre;">Compose version</text></g><g class="g-ytitle"><text class="ytitle" transform="rotate(-90,42,266)" x="42" y="266" text-anchor="middle" style="font-family: 'Open Sans', verdana, arial, sans-serif; font-size: 14px; fill: rgb(68, 68, 68); opacity: 1; font-weight: normal; white-space: pre;">Performance index</text></g></g></svg>